<?xml version="1.0" encoding="UTF-8" standalone="no"?>
<!DOCTYPE svg PUBLIC "-//W3C//DTD SVG 1.1//EN"
 "http://www.w3.org/Graphics/SVG/1.1/DTD/svg11.dtd">
<!-- Generated by graphviz version 2.36.0 (20140111.2315)
 -->
<!-- Title: g Pages: 1 -->
<svg width="424pt" height="832pt"
 viewBox="0.00 0.00 424.00 832.00" xmlns="http://www.w3.org/2000/svg" xmlns:xlink="http://www.w3.org/1999/xlink">
<g id="graph0" class="graph" transform="scale(1 1) rotate(0) translate(4 828)">
<title>g</title>
<polygon fill="white" stroke="none" points="-4,4 -4,-828 420,-828 420,4 -4,4"/>
<!-- QMainWindow -->
<g id="node1" class="node"><title>QMainWindow</title>
<ellipse fill="none" stroke="#cccccc" cx="141" cy="-732" rx="66.8882" ry="18"/>
<text text-anchor="middle" x="141" y="-728.3" font-family="Times,serif" font-size="14.00">QMainWindow</text>
</g>
<!-- QApplication -->
<g id="node2" class="node"><title>QApplication</title>
<ellipse fill="none" stroke="#cccccc" cx="253" cy="-806" rx="58.4896" ry="18"/>
<text text-anchor="middle" x="253" y="-802.3" font-family="Times,serif" font-size="14.00">QApplication</text>
</g>
<!-- QWidget -->
<g id="node3" class="node"><title>QWidget</title>
<ellipse fill="none" stroke="#cccccc" cx="43" cy="-658" rx="43.5923" ry="18"/>
<text text-anchor="middle" x="43" y="-654.3" font-family="Times,serif" font-size="14.00">QWidget</text>
</g>
<!-- lm -->
<g id="node4" class="node"><title>lm</title>
<ellipse fill="none" stroke="black" cx="55" cy="-584" rx="50.0912" ry="18"/>
<text text-anchor="middle" x="55" y="-580.3" font-family="Times,serif" font-size="14.00">LightMaps</text>
</g>
<!-- lm&#45;&gt;QWidget -->
<g id="edge3" class="edge"><title>lm&#45;&gt;QWidget</title>
<path fill="none" stroke="#ffaaaa" d="M52.1562,-602.063C50.7865,-610.281 49.11,-620.34 47.5677,-629.594"/>
<polygon fill="#ffaaaa" stroke="#ffaaaa" points="44.0985,-629.12 45.9068,-639.559 51.0032,-630.271 44.0985,-629.12"/>
</g>
<!-- MapZoom -->
<g id="node16" class="node"><title>MapZoom</title>
<ellipse fill="none" stroke="black" cx="153" cy="-658" rx="48.9926" ry="18"/>
<text text-anchor="middle" x="153" y="-654.3" font-family="Times,serif" font-size="14.00">MapZoom</text>
</g>
<!-- lm&#45;&gt;MapZoom -->
<g id="edge5" class="edge"><title>lm&#45;&gt;MapZoom</title>
<path fill="none" stroke="#8888ff" d="M84.4352,-606.626C99.798,-617.913 118.231,-631.455 132.114,-641.655"/>
<polygon fill="#8888ff" stroke="#8888ff" points="86.3957,-603.723 76.2645,-600.623 82.2511,-609.364 86.3957,-603.723"/>
</g>
<!-- sm -->
<g id="node5" class="node"><title>sm</title>
<ellipse fill="none" stroke="black" cx="291" cy="-584" rx="50.0912" ry="18"/>
<text text-anchor="middle" x="291" y="-580.3" font-family="Times,serif" font-size="14.00">SlippyMap</text>
</g>
<!-- tm -->
<g id="node6" class="node"><title>tm</title>
<ellipse fill="none" stroke="black" cx="176" cy="-274" rx="56.59" ry="18"/>
<text text-anchor="middle" x="176" y="-270.3" font-family="Times,serif" font-size="14.00">TileManager</text>
</g>
<!-- dl -->
<g id="node9" class="node"><title>dl</title>
<ellipse fill="none" stroke="black" cx="257" cy="-348" rx="51.1914" ry="18"/>
<text text-anchor="middle" x="257" y="-344.3" font-family="Times,serif" font-size="14.00">download()</text>
</g>
<!-- tm&#45;&gt;dl -->
<g id="edge21" class="edge"><title>tm&#45;&gt;dl</title>
<path fill="none" stroke="#8888ff" d="M201.97,-298.085C214.037,-308.811 228.088,-321.301 238.972,-330.975"/>
<polygon fill="#8888ff" stroke="#8888ff" points="204.18,-295.366 194.38,-291.338 199.529,-300.598 204.18,-295.366"/>
</g>
<!-- hnd -->
<g id="node7" class="node"><title>hnd</title>
<ellipse fill="none" stroke="black" cx="195" cy="-92" rx="87.1846" ry="18"/>
<text text-anchor="middle" x="195" y="-88.3" font-family="Times,serif" font-size="14.00">handleNetworkData()</text>
</g>
<!-- fin -->
<g id="node14" class="node"><title>fin</title>
<ellipse fill="none" stroke="black" cx="184" cy="-200" rx="42.4939" ry="18"/>
<text text-anchor="middle" x="184" y="-196.3" font-family="Times,serif" font-size="14.00">finished!</text>
</g>
<!-- hnd&#45;&gt;fin -->
<g id="edge18" class="edge"><title>hnd&#45;&gt;fin</title>
<path fill="none" stroke="#00cc55" d="M192.184,-120.133C190.16,-139.639 187.493,-165.337 185.763,-182.012"/>
<polygon fill="#00cc55" stroke="#00cc55" points="195.682,-120.339 193.233,-110.031 188.719,-119.616 195.682,-120.339"/>
</g>
<!-- inv -->
<g id="node8" class="node"><title>inv</title>
<ellipse fill="none" stroke="black" cx="221" cy="-436" rx="51.1914" ry="18"/>
<text text-anchor="middle" x="221" y="-432.3" font-family="Times,serif" font-size="14.00">invalidate()</text>
</g>
<!-- inv&#45;&gt;sm -->
<g id="edge6" class="edge"><title>inv&#45;&gt;sm</title>
<path fill="none" stroke="#8888ff" d="M235.81,-463.067C240.804,-472.138 246.301,-482.437 251,-492 263.482,-517.401 276.388,-547.604 284.051,-566.031"/>
<polygon fill="#8888ff" stroke="#8888ff" points="238.763,-461.176 230.84,-454.142 232.647,-464.581 238.763,-461.176"/>
</g>
<!-- pan -->
<g id="node12" class="node"><title>pan</title>
<ellipse fill="none" stroke="black" cx="328" cy="-510" rx="29.4969" ry="18"/>
<text text-anchor="middle" x="328" y="-506.3" font-family="Times,serif" font-size="14.00">pan()</text>
</g>
<!-- inv&#45;&gt;pan -->
<g id="edge10" class="edge"><title>inv&#45;&gt;pan</title>
<path fill="none" stroke="#8888ff" d="M258.791,-455.953C267.607,-460.839 276.808,-466.329 285,-472 294.717,-478.727 304.773,-487.277 312.714,-494.463"/>
<polygon fill="#8888ff" stroke="#8888ff" points="260.263,-452.77 249.801,-451.098 256.936,-458.929 260.263,-452.77"/>
</g>
<!-- sc -->
<g id="node15" class="node"><title>sc</title>
<ellipse fill="none" stroke="black" cx="113" cy="-510" rx="50.0912" ry="18"/>
<text text-anchor="middle" x="113" y="-506.3" font-family="Times,serif" font-size="14.00">setCenter()</text>
</g>
<!-- inv&#45;&gt;sc -->
<g id="edge24" class="edge"><title>inv&#45;&gt;sc</title>
<path fill="none" stroke="#8888ff" d="M189.503,-457.998C172.335,-469.444 151.471,-483.353 135.871,-493.753"/>
<polygon fill="#8888ff" stroke="#8888ff" points="191.717,-460.729 198.096,-452.269 187.834,-454.904 191.717,-460.729"/>
</g>
<!-- zoom -->
<g id="node18" class="node"><title>zoom</title>
<ellipse fill="none" stroke="black" cx="212" cy="-510" rx="30.5947" ry="18"/>
<text text-anchor="middle" x="212" y="-506.3" font-family="Times,serif" font-size="14.00">zoom</text>
</g>
<!-- inv&#45;&gt;zoom -->
<g id="edge12" class="edge"><title>inv&#45;&gt;zoom</title>
<path fill="none" stroke="#8888ff" d="M217.59,-464.281C216.446,-473.428 215.203,-483.375 214.18,-491.559"/>
<polygon fill="#8888ff" stroke="#8888ff" points="221.1,-464.42 218.867,-454.063 214.154,-463.552 221.1,-464.42"/>
</g>
<!-- dl&#45;&gt;hnd -->
<g id="edge19" class="edge"><title>dl&#45;&gt;hnd</title>
<path fill="none" stroke="#8888ff" d="M255.769,-319.531C253.731,-286.376 248.442,-229.196 235,-182 227.576,-155.932 213.807,-127.684 204.524,-110.163"/>
<polygon fill="#8888ff" stroke="#8888ff" points="252.29,-320.015 256.342,-329.805 259.28,-319.625 252.29,-320.015"/>
</g>
<!-- dl&#45;&gt;inv -->
<g id="edge7" class="edge"><title>dl&#45;&gt;inv</title>
<path fill="none" stroke="#8888ff" d="M245.905,-375.505C240.103,-389.365 233.173,-405.921 228.098,-418.044"/>
<polygon fill="#8888ff" stroke="#8888ff" points="249.255,-376.567 249.888,-365.991 242.798,-373.864 249.255,-376.567"/>
<text text-anchor="middle" x="250" y="-388.3" font-family="Times,serif" font-size="14.00">alt</text>
</g>
<!-- up -->
<g id="node10" class="node"><title>up</title>
<ellipse fill="none" stroke="black" cx="80" cy="-18" rx="41.6928" ry="18"/>
<text text-anchor="middle" x="80" y="-14.3" font-family="Times,serif" font-size="14.00">updated!</text>
</g>
<!-- up&#45;&gt;lm -->
<g id="edge22" class="edge"><title>up&#45;&gt;lm</title>
<path fill="none" stroke="#8888ff" d="M56.2852,-42.3022C45.4543,-55.4296 35,-72.8115 35,-91 35,-91 35,-91 35,-511 35,-530.46 41.8665,-551.835 47.5527,-566.199"/>
<polygon fill="#8888ff" stroke="#8888ff" points="58.9938,-44.5225 62.9874,-34.7092 53.7458,-39.8902 58.9938,-44.5225"/>
</g>
<!-- up&#45;&gt;hnd -->
<g id="edge20" class="edge"><title>up&#45;&gt;hnd</title>
<path fill="none" stroke="#00cc55" d="M111.228,-38.5513C129.374,-49.9124 151.967,-64.0575 169.116,-74.7941"/>
<polygon fill="#00cc55" stroke="#00cc55" points="113.053,-35.565 102.72,-33.2249 109.339,-41.4981 113.053,-35.565"/>
</g>
<!-- up&#45;&gt;inv -->
<g id="edge8" class="edge"><title>up&#45;&gt;inv</title>
<path fill="none" stroke="#00cc55" d="M80,-46.2288C80,-59.7001 80,-76.2051 80,-91 80,-91 80,-91 80,-349 80,-394.877 135.078,-417.002 176.387,-427.143"/>
<polygon fill="#00cc55" stroke="#00cc55" points="83.5001,-46.1662 80,-36.1662 76.5001,-46.1662 83.5001,-46.1662"/>
</g>
<!-- ren -->
<g id="node11" class="node"><title>ren</title>
<ellipse fill="none" stroke="black" cx="378" cy="-146" rx="38.9931" ry="18"/>
<text text-anchor="middle" x="378" y="-142.3" font-family="Times,serif" font-size="14.00">render()</text>
</g>
<!-- ren&#45;&gt;sm -->
<g id="edge9" class="edge"><title>ren&#45;&gt;sm</title>
<path fill="none" stroke="#8888ff" d="M381.248,-174.161C383.078,-191.765 385,-215.207 385,-236 385,-236 385,-236 385,-511 385,-541.321 353.794,-560.604 327.343,-571.503"/>
<polygon fill="#8888ff" stroke="#8888ff" points="384.706,-173.59 380.138,-164.031 377.748,-174.352 384.706,-173.59"/>
</g>
<!-- pan&#45;&gt;sm -->
<g id="edge11" class="edge"><title>pan&#45;&gt;sm</title>
<path fill="none" stroke="#8888ff" d="M314.967,-536.361C309.877,-546.266 304.181,-557.35 299.619,-566.227"/>
<polygon fill="#8888ff" stroke="#8888ff" points="318.146,-537.832 319.604,-527.338 311.92,-534.632 318.146,-537.832"/>
</g>
<!-- pm -->
<g id="node13" class="node"><title>pm</title>
<ellipse fill="none" stroke="black" cx="310" cy="-18" rx="52.7911" ry="18"/>
<text text-anchor="middle" x="310" y="-14.3" font-family="Times,serif" font-size="14.00">tilePixmaps</text>
</g>
<!-- pm&#45;&gt;hnd -->
<g id="edge16" class="edge"><title>pm&#45;&gt;hnd</title>
<path fill="none" stroke="#8888ff" d="M277.002,-39.6597C259.243,-50.7786 237.648,-64.2989 221.077,-74.6733"/>
<polygon fill="#8888ff" stroke="#8888ff" points="279.274,-42.3668 285.892,-34.0936 275.559,-36.4337 279.274,-42.3668"/>
</g>
<!-- pm&#45;&gt;dl -->
<g id="edge14" class="edge"><title>pm&#45;&gt;dl</title>
<path fill="none" stroke="#8888ff" d="M310,-46.2288C310,-59.7001 310,-76.2051 310,-91 310,-91 310,-91 310,-275 310,-297.817 292.524,-318.17 277.643,-331.366"/>
<polygon fill="#8888ff" stroke="#8888ff" points="313.5,-46.1662 310,-36.1662 306.5,-46.1662 313.5,-46.1662"/>
</g>
<!-- pm&#45;&gt;ren -->
<g id="edge15" class="edge"><title>pm&#45;&gt;ren</title>
<path fill="none" stroke="#8888ff" d="M323.837,-44.6383C337.305,-69.5941 357.382,-106.796 368.933,-128.199"/>
<polygon fill="#8888ff" stroke="#8888ff" points="326.859,-42.8698 319.03,-35.7318 320.699,-46.1943 326.859,-42.8698"/>
</g>
<!-- fin&#45;&gt;tm -->
<g id="edge17" class="edge"><title>fin&#45;&gt;tm</title>
<path fill="none" stroke="#8888ff" d="M180.969,-228.281C179.952,-237.428 178.847,-247.375 177.938,-255.559"/>
<polygon fill="#8888ff" stroke="#8888ff" points="184.478,-228.388 182.104,-218.063 177.521,-227.615 184.478,-228.388"/>
</g>
<!-- sc&#45;&gt;lm -->
<g id="edge23" class="edge"><title>sc&#45;&gt;lm</title>
<path fill="none" stroke="#8888ff" d="M93.2658,-535.498C85.0653,-545.678 75.7601,-557.229 68.3792,-566.391"/>
<polygon fill="#8888ff" stroke="#8888ff" points="96.0002,-537.682 99.5479,-527.699 90.5489,-533.291 96.0002,-537.682"/>
</g>
<!-- MapZoom&#45;&gt;QMainWindow -->
<g id="edge1" class="edge"><title>MapZoom&#45;&gt;QMainWindow</title>
<path fill="none" stroke="#ffaaaa" d="M150.156,-676.063C148.786,-684.281 147.11,-694.34 145.568,-703.594"/>
<polygon fill="#ffaaaa" stroke="#ffaaaa" points="142.098,-703.12 143.907,-713.559 149.003,-704.271 142.098,-703.12"/>
</g>
<!-- app -->
<g id="node17" class="node"><title>app</title>
<ellipse fill="none" stroke="black" cx="253" cy="-732" rx="27" ry="18"/>
<text text-anchor="middle" x="253" y="-728.3" font-family="Times,serif" font-size="14.00">app</text>
</g>
<!-- MapZoom&#45;&gt;app -->
<g id="edge4" class="edge"><title>MapZoom&#45;&gt;app</title>
<path fill="none" stroke="#8888ff" d="M182.727,-680.404C199.783,-692.683 220.626,-707.691 235.165,-718.159"/>
<polygon fill="#8888ff" stroke="#8888ff" points="184.368,-677.272 174.207,-674.269 180.278,-682.953 184.368,-677.272"/>
</g>
<!-- app&#45;&gt;QApplication -->
<g id="edge2" class="edge"><title>app&#45;&gt;QApplication</title>
<path fill="none" stroke="#ffaaaa" d="M253,-750.063C253,-758.193 253,-768.124 253,-777.295"/>
<polygon fill="#ffaaaa" stroke="#ffaaaa" points="249.5,-777.559 253,-787.559 256.5,-777.559 249.5,-777.559"/>
</g>
<!-- zoom&#45;&gt;sm -->
<g id="edge13" class="edge"><title>zoom&#45;&gt;sm</title>
<path fill="none" stroke="#8888ff" d="M235.553,-532.466C247.689,-543.527 262.238,-556.787 273.388,-566.948"/>
<polygon fill="#8888ff" stroke="#8888ff" points="237.735,-529.72 227.987,-525.57 233.02,-534.893 237.735,-529.72"/>
</g>
</g>
</svg>
