<?xml version="1.0" encoding="UTF-8" standalone="no"?>
<!DOCTYPE svg PUBLIC "-//W3C//DTD SVG 1.1//EN"
 "http://www.w3.org/Graphics/SVG/1.1/DTD/svg11.dtd">
<!-- Generated by graphviz version 2.36.0 (20140111.2315)
 -->
<!-- Title: g Pages: 1 -->
<svg width="630pt" height="2420pt"
 viewBox="0.00 0.00 630.00 2420.00" xmlns="http://www.w3.org/2000/svg" xmlns:xlink="http://www.w3.org/1999/xlink">
<g id="graph0" class="graph" transform="scale(1 1) rotate(0) translate(4 2416)">
<title>g</title>
<polygon fill="white" stroke="none" points="-4,4 -4,-2416 626,-2416 626,4 -4,4"/>
<!-- double -->
<g id="node1" class="node"><title>double</title>
<polygon fill="none" stroke="black" points="348,-110 348,-146 402,-146 402,-110 348,-110"/>
<text text-anchor="middle" x="375" y="-124.3" font-family="Times,serif" font-size="14.00">double</text>
</g>
<!-- string -->
<g id="node2" class="node"><title>string</title>
<polygon fill="none" stroke="black" points="348,-412 348,-448 402,-448 402,-412 348,-412"/>
<text text-anchor="middle" x="375" y="-426.3" font-family="Times,serif" font-size="14.00">string</text>
</g>
<!-- hexBinary -->
<g id="node3" class="node"><title>hexBinary</title>
<polygon fill="none" stroke="black" points="338.5,-605 338.5,-641 411.5,-641 411.5,-605 338.5,-605"/>
<text text-anchor="middle" x="375" y="-619.3" font-family="Times,serif" font-size="14.00">hexBinary</text>
</g>
<!-- anglepos90 -->
<g id="node4" class="node"><title>anglepos90</title>
<polygon fill="none" stroke="black" points="508,-220 508,-256 586,-256 586,-220 508,-220"/>
<text text-anchor="middle" x="547" y="-234.3" font-family="Times,serif" font-size="14.00">anglepos90</text>
</g>
<!-- anglepos90&#45;&gt;double -->
<g id="edge1" class="edge"><title>anglepos90&#45;&gt;double</title>
<path fill="none" stroke="black" d="M507.954,-226.453C496.041,-222.097 483.112,-216.575 472,-210 445.426,-194.275 419.028,-171.025 400.659,-153.294"/>
<polygon fill="black" stroke="black" points="402.89,-150.579 393.302,-146.071 397.986,-155.574 402.89,-150.579"/>
</g>
<!-- angle90 -->
<g id="node5" class="node"><title>angle90</title>
<polygon fill="none" stroke="black" points="517.5,-165 517.5,-201 576.5,-201 576.5,-165 517.5,-165"/>
<text text-anchor="middle" x="547" y="-179.3" font-family="Times,serif" font-size="14.00">angle90</text>
</g>
<!-- angle90&#45;&gt;double -->
<g id="edge2" class="edge"><title>angle90&#45;&gt;double</title>
<path fill="none" stroke="black" d="M517.162,-173.67C488.099,-164.267 443.181,-149.735 411.844,-139.597"/>
<polygon fill="black" stroke="black" points="412.776,-136.22 402.184,-136.471 410.621,-142.88 412.776,-136.22"/>
</g>
<!-- anglepos180 -->
<g id="node6" class="node"><title>anglepos180</title>
<polygon fill="none" stroke="black" points="504.5,-110 504.5,-146 589.5,-146 589.5,-110 504.5,-110"/>
<text text-anchor="middle" x="547" y="-124.3" font-family="Times,serif" font-size="14.00">anglepos180</text>
</g>
<!-- anglepos180&#45;&gt;double -->
<g id="edge3" class="edge"><title>anglepos180&#45;&gt;double</title>
<path fill="none" stroke="black" d="M504.413,-128C476.21,-128 439.291,-128 412.281,-128"/>
<polygon fill="black" stroke="black" points="412.092,-124.5 402.092,-128 412.092,-131.5 412.092,-124.5"/>
</g>
<!-- angle180 -->
<g id="node7" class="node"><title>angle180</title>
<polygon fill="none" stroke="black" points="514,-55 514,-91 580,-91 580,-55 514,-55"/>
<text text-anchor="middle" x="547" y="-69.3" font-family="Times,serif" font-size="14.00">angle180</text>
</g>
<!-- angle180&#45;&gt;double -->
<g id="edge4" class="edge"><title>angle180&#45;&gt;double</title>
<path fill="none" stroke="black" d="M513.624,-83.4745C484.543,-92.8832 441.912,-106.675 411.819,-116.411"/>
<polygon fill="black" stroke="black" points="410.569,-113.137 402.132,-119.546 412.724,-119.797 410.569,-113.137"/>
</g>
<!-- angle360 -->
<g id="node8" class="node"><title>angle360</title>
<polygon fill="none" stroke="black" points="514,-0 514,-36 580,-36 580,-0 514,-0"/>
<text text-anchor="middle" x="547" y="-14.3" font-family="Times,serif" font-size="14.00">angle360</text>
</g>
<!-- angle360&#45;&gt;double -->
<g id="edge5" class="edge"><title>angle360&#45;&gt;double</title>
<path fill="none" stroke="black" d="M513.901,-26.8909C500.455,-31.3203 484.969,-37.3773 472,-45 445.076,-60.8252 418.535,-84.5727 400.208,-102.617"/>
<polygon fill="black" stroke="black" points="397.465,-100.411 392.879,-109.962 402.42,-105.355 397.465,-100.411"/>
</g>
<!-- altitudeModeEnum -->
<g id="node9" class="node"><title>altitudeModeEnum</title>
<polygon fill="none" stroke="black" points="486,-550 486,-586 608,-586 608,-550 486,-550"/>
<text text-anchor="middle" x="547" y="-564.3" font-family="Times,serif" font-size="14.00">altitudeModeEnum</text>
</g>
<!-- altitudeModeEnum&#45;&gt;string -->
<g id="edge6" class="edge"><title>altitudeModeEnum&#45;&gt;string</title>
<path fill="none" stroke="black" d="M489.166,-549.853C483.15,-546.961 477.301,-543.685 472,-540 439.377,-517.321 410.712,-481.174 393.39,-456.555"/>
<polygon fill="black" stroke="black" points="396.089,-454.303 387.534,-448.052 390.324,-458.274 396.089,-454.303"/>
</g>
<!-- color -->
<g id="node10" class="node"><title>color</title>
<polygon fill="none" stroke="black" points="520,-605 520,-641 574,-641 574,-605 520,-605"/>
<text text-anchor="middle" x="547" y="-619.3" font-family="Times,serif" font-size="14.00">color</text>
</g>
<!-- color&#45;&gt;hexBinary -->
<g id="edge7" class="edge"><title>color&#45;&gt;hexBinary</title>
<path fill="none" stroke="black" d="M519.81,-623C493.786,-623 453.337,-623 421.957,-623"/>
<polygon fill="black" stroke="black" points="421.697,-619.5 411.697,-623 421.697,-626.5 421.697,-619.5"/>
</g>
<!-- coordinates -->
<g id="node11" class="node"><title>coordinates</title>
<polygon fill="none" stroke="black" points="507.5,-495 507.5,-531 586.5,-531 586.5,-495 507.5,-495"/>
<text text-anchor="middle" x="547" y="-509.3" font-family="Times,serif" font-size="14.00">coordinates</text>
</g>
<!-- coordinates&#45;&gt;string -->
<g id="edge8" class="edge"><title>coordinates&#45;&gt;string</title>
<path fill="none" stroke="black" d="M507.492,-499.748C495.922,-495.416 483.304,-490.335 472,-485 451.291,-475.225 429.05,-462.627 411.196,-451.954"/>
<polygon fill="black" stroke="black" points="412.659,-448.749 402.29,-446.574 409.04,-454.741 412.659,-448.749"/>
</g>
<!-- colorModeEnum -->
<g id="node12" class="node"><title>colorModeEnum</title>
<polygon fill="none" stroke="black" points="492,-440 492,-476 602,-476 602,-440 492,-440"/>
<text text-anchor="middle" x="547" y="-454.3" font-family="Times,serif" font-size="14.00">colorModeEnum</text>
</g>
<!-- colorModeEnum&#45;&gt;string -->
<g id="edge9" class="edge"><title>colorModeEnum&#45;&gt;string</title>
<path fill="none" stroke="black" d="M491.744,-449.064C465.79,-444.789 435.416,-439.786 412.297,-435.978"/>
<polygon fill="black" stroke="black" points="412.664,-432.492 402.228,-434.32 411.526,-439.399 412.664,-432.492"/>
</g>
<!-- dateTime -->
<g id="node13" class="node"><title>dateTime</title>
<polygon fill="none" stroke="black" points="513,-660 513,-696 581,-696 581,-660 513,-660"/>
<text text-anchor="middle" x="547" y="-674.3" font-family="Times,serif" font-size="14.00">dateTime</text>
</g>
<!-- displayModeEnum -->
<g id="node14" class="node"><title>displayModeEnum</title>
<polygon fill="none" stroke="black" points="486.5,-385 486.5,-421 607.5,-421 607.5,-385 486.5,-385"/>
<text text-anchor="middle" x="547" y="-399.3" font-family="Times,serif" font-size="14.00">displayModeEnum</text>
</g>
<!-- displayModeEnum&#45;&gt;string -->
<g id="edge10" class="edge"><title>displayModeEnum&#45;&gt;string</title>
<path fill="none" stroke="black" d="M486.064,-412.519C461.419,-416.433 433.686,-420.838 412.225,-424.247"/>
<polygon fill="black" stroke="black" points="411.561,-420.808 402.233,-425.834 412.659,-427.722 411.561,-420.808"/>
</g>
<!-- gridOriginEnum -->
<g id="node15" class="node"><title>gridOriginEnum</title>
<polygon fill="none" stroke="black" points="493.5,-330 493.5,-366 600.5,-366 600.5,-330 493.5,-330"/>
<text text-anchor="middle" x="547" y="-344.3" font-family="Times,serif" font-size="14.00">gridOriginEnum</text>
</g>
<!-- gridOriginEnum&#45;&gt;string -->
<g id="edge11" class="edge"><title>gridOriginEnum&#45;&gt;string</title>
<path fill="none" stroke="black" d="M493.394,-365.934C486.127,-368.776 478.821,-371.83 472,-375 451.234,-384.651 428.989,-397.242 411.147,-407.94"/>
<polygon fill="black" stroke="black" points="408.984,-405.159 402.249,-413.337 412.614,-411.144 408.984,-405.159"/>
</g>
<!-- itemIconState -->
<g id="node16" class="node"><title>itemIconState</title>
<polygon fill="none" stroke="black" points="501,-715 501,-751 593,-751 593,-715 501,-715"/>
<text text-anchor="middle" x="547" y="-729.3" font-family="Times,serif" font-size="14.00">itemIconState</text>
</g>
<!-- itemIconStateEnum -->
<g id="node17" class="node"><title>itemIconStateEnum</title>
<polygon fill="none" stroke="black" points="484.5,-770 484.5,-806 609.5,-806 609.5,-770 484.5,-770"/>
<text text-anchor="middle" x="547" y="-784.3" font-family="Times,serif" font-size="14.00">itemIconStateEnum</text>
</g>
<!-- listItemTypeEnum -->
<g id="node18" class="node"><title>listItemTypeEnum</title>
<polygon fill="none" stroke="black" points="487.5,-275 487.5,-311 606.5,-311 606.5,-275 487.5,-275"/>
<text text-anchor="middle" x="547" y="-289.3" font-family="Times,serif" font-size="14.00">listItemTypeEnum</text>
</g>
<!-- listItemTypeEnum&#45;&gt;string -->
<g id="edge12" class="edge"><title>listItemTypeEnum&#45;&gt;string</title>
<path fill="none" stroke="black" d="M487.631,-311.059C482.156,-313.7 476.848,-316.672 472,-320 439.243,-342.485 410.608,-378.676 393.329,-403.358"/>
<polygon fill="black" stroke="black" points="390.253,-401.655 387.49,-411.884 396.028,-405.611 390.253,-401.655"/>
</g>
<!-- refreshModeEnum -->
<g id="node19" class="node"><title>refreshModeEnum</title>
<polygon fill="none" stroke="black" points="487.5,-825 487.5,-861 606.5,-861 606.5,-825 487.5,-825"/>
<text text-anchor="middle" x="547" y="-839.3" font-family="Times,serif" font-size="14.00">refreshModeEnum</text>
</g>
<!-- viewRefreshModeEnum -->
<g id="node20" class="node"><title>viewRefreshModeEnum</title>
<polygon fill="none" stroke="black" points="472,-880 472,-916 622,-916 622,-880 472,-880"/>
<text text-anchor="middle" x="547" y="-894.3" font-family="Times,serif" font-size="14.00">viewRefreshModeEnum</text>
</g>
<!-- shapeEnum -->
<g id="node21" class="node"><title>shapeEnum</title>
<polygon fill="none" stroke="black" points="507,-935 507,-971 587,-971 587,-935 507,-935"/>
<text text-anchor="middle" x="547" y="-949.3" font-family="Times,serif" font-size="14.00">shapeEnum</text>
</g>
<!-- styleStateEnum -->
<g id="node22" class="node"><title>styleStateEnum</title>
<polygon fill="none" stroke="black" points="496,-990 496,-1026 598,-1026 598,-990 496,-990"/>
<text text-anchor="middle" x="547" y="-1004.3" font-family="Times,serif" font-size="14.00">styleStateEnum</text>
</g>
<!-- Document -->
<g id="node23" class="node"><title>Document</title>
<polygon fill="lightgrey" stroke="black" points="510,-2075.5 510,-2136.5 584,-2136.5 584,-2075.5 510,-2075.5"/>
<text text-anchor="middle" x="547" y="-2121.3" font-family="Times,serif" font-size="14.00">Document</text>
<polyline fill="none" stroke="black" points="510,-2113.5 584,-2113.5 "/>
<text text-anchor="start" x="518" y="-2098.3" font-family="Times,serif" font-size="14.00">Features</text>
<text text-anchor="start" x="518" y="-2083.3" font-family="Times,serif" font-size="14.00">Schemas</text>
</g>
<!-- AbstractContainer -->
<g id="node42" class="node"><title>AbstractContainer</title>
<polygon fill="none" stroke="black" points="317,-2020 317,-2056 433,-2056 433,-2020 317,-2020"/>
<text text-anchor="middle" x="375" y="-2034.3" font-family="Times,serif" font-size="14.00">AbstractContainer</text>
</g>
<!-- Document&#45;&gt;AbstractContainer -->
<g id="edge20" class="edge"><title>Document&#45;&gt;AbstractContainer</title>
<path fill="none" stroke="black" d="M509.947,-2091.58C486.857,-2082.34 456.457,-2070.18 430.456,-2059.78"/>
<polygon fill="black" stroke="black" points="431.681,-2056.5 421.097,-2056.04 429.082,-2063 431.681,-2056.5"/>
</g>
<!-- Folder -->
<g id="node24" class="node"><title>Folder</title>
<polygon fill="lightgrey" stroke="black" points="520,-2020 520,-2056 574,-2056 574,-2020 520,-2020"/>
<text text-anchor="middle" x="547" y="-2034.3" font-family="Times,serif" font-size="14.00">Folder</text>
</g>
<!-- Folder&#45;&gt;AbstractContainer -->
<g id="edge21" class="edge"><title>Folder&#45;&gt;AbstractContainer</title>
<path fill="none" stroke="black" d="M519.81,-2038C499.411,-2038 470.149,-2038 443.339,-2038"/>
<polygon fill="black" stroke="black" points="443.207,-2034.5 433.207,-2038 443.207,-2041.5 443.207,-2034.5"/>
</g>
<!-- Placemark -->
<g id="node25" class="node"><title>Placemark</title>
<polygon fill="lightgrey" stroke="black" points="338,-1818 338,-1864 412,-1864 412,-1818 338,-1818"/>
<text text-anchor="middle" x="375" y="-1848.8" font-family="Times,serif" font-size="14.00">Placemark</text>
<polyline fill="none" stroke="black" points="338,-1841 412,-1841 "/>
<text text-anchor="middle" x="375" y="-1825.8" font-family="Times,serif" font-size="14.00">geometry</text>
</g>
<!-- AbstractFeature -->
<g id="node37" class="node"><title>AbstractFeature</title>
<polygon fill="none" stroke="black" points="154.5,-1818 154.5,-1984 257.5,-1984 257.5,-1818 154.5,-1818"/>
<text text-anchor="middle" x="206" y="-1968.8" font-family="Times,serif" font-size="14.00">AbstractFeature</text>
<polyline fill="none" stroke="black" points="154.5,-1961 257.5,-1961 "/>
<text text-anchor="start" x="162.5" y="-1945.8" font-family="Times,serif" font-size="14.00">name</text>
<text text-anchor="start" x="162.5" y="-1930.8" font-family="Times,serif" font-size="14.00">visibility</text>
<text text-anchor="start" x="162.5" y="-1915.8" font-family="Times,serif" font-size="14.00">open</text>
<text text-anchor="start" x="162.5" y="-1900.8" font-family="Times,serif" font-size="14.00">address</text>
<text text-anchor="start" x="162.5" y="-1885.8" font-family="Times,serif" font-size="14.00">phone</text>
<text text-anchor="start" x="162.5" y="-1870.8" font-family="Times,serif" font-size="14.00">region</text>
<text text-anchor="start" x="162.5" y="-1855.8" font-family="Times,serif" font-size="14.00">description</text>
<text text-anchor="start" x="162.5" y="-1840.8" font-family="Times,serif" font-size="14.00">styleUrl</text>
<text text-anchor="start" x="162.5" y="-1825.8" font-family="Times,serif" font-size="14.00">StyleSelector</text>
</g>
<!-- Placemark&#45;&gt;AbstractFeature -->
<g id="edge22" class="edge"><title>Placemark&#45;&gt;AbstractFeature</title>
<path fill="none" stroke="black" d="M337.763,-1854.02C317.191,-1861.41 290.911,-1870.85 267.315,-1879.33"/>
<polygon fill="black" stroke="black" points="265.964,-1876.1 257.736,-1882.77 268.33,-1882.68 265.964,-1876.1"/>
</g>
<!-- AbstractGeometry -->
<g id="node39" class="node"><title>AbstractGeometry</title>
<polygon fill="none" stroke="black" points="147.5,-1625 147.5,-1661 264.5,-1661 264.5,-1625 147.5,-1625"/>
<text text-anchor="middle" x="206" y="-1639.3" font-family="Times,serif" font-size="14.00">AbstractGeometry</text>
</g>
<!-- Placemark&#45;&gt;AbstractGeometry -->
<g id="edge24" class="edge"><title>Placemark:f1&#45;&gt;AbstractGeometry</title>
<path fill="none" stroke="black" d="M337,-1829C323.158,-1829 321.152,-1819.85 314,-1808 281.248,-1753.73 320.331,-1717.18 278,-1670 276.462,-1668.29 274.802,-1666.68 273.046,-1665.17"/>
<polygon fill="black" stroke="black" points="274.951,-1662.23 264.798,-1659.2 270.847,-1667.9 274.951,-1662.23"/>
</g>
<!-- Style -->
<g id="node26" class="node"><title>Style</title>
<polygon fill="lightgrey" stroke="black" points="333.5,-1402.5 333.5,-1523.5 416.5,-1523.5 416.5,-1402.5 333.5,-1402.5"/>
<text text-anchor="middle" x="375" y="-1508.3" font-family="Times,serif" font-size="14.00">Style</text>
<polyline fill="none" stroke="black" points="333.5,-1500.5 416.5,-1500.5 "/>
<text text-anchor="start" x="341.5" y="-1485.3" font-family="Times,serif" font-size="14.00">IconStyle</text>
<text text-anchor="start" x="341.5" y="-1470.3" font-family="Times,serif" font-size="14.00">LineStyle</text>
<text text-anchor="start" x="341.5" y="-1455.3" font-family="Times,serif" font-size="14.00">PolyStyle</text>
<text text-anchor="start" x="341.5" y="-1440.3" font-family="Times,serif" font-size="14.00">BaloonStyle</text>
<text text-anchor="start" x="341.5" y="-1425.3" font-family="Times,serif" font-size="14.00">ListStyle</text>
<text text-anchor="start" x="341.5" y="-1410.3" font-family="Times,serif" font-size="14.00">LabelStyle</text>
</g>
<!-- AbstractStyleSelector -->
<g id="node40" class="node"><title>AbstractStyleSelector</title>
<polygon fill="none" stroke="black" points="139,-1457 139,-1493 273,-1493 273,-1457 139,-1457"/>
<text text-anchor="middle" x="206" y="-1471.3" font-family="Times,serif" font-size="14.00">AbstractStyleSelector</text>
</g>
<!-- Style&#45;&gt;AbstractStyleSelector -->
<g id="edge40" class="edge"><title>Style&#45;&gt;AbstractStyleSelector</title>
<path fill="none" stroke="black" d="M333.147,-1465.94C318.052,-1467.02 300.416,-1468.29 283.197,-1469.52"/>
<polygon fill="black" stroke="black" points="282.853,-1466.04 273.129,-1470.25 283.354,-1473.02 282.853,-1466.04"/>
</g>
<!-- LineString -->
<g id="node27" class="node"><title>LineString</title>
<polygon fill="lightgrey" stroke="black" points="338,-1763 338,-1799 412,-1799 412,-1763 338,-1763"/>
<text text-anchor="middle" x="375" y="-1777.3" font-family="Times,serif" font-size="14.00">LineString</text>
</g>
<!-- LineString&#45;&gt;AbstractGeometry -->
<g id="edge31" class="edge"><title>LineString&#45;&gt;AbstractGeometry</title>
<path fill="none" stroke="black" d="M337.947,-1769.29C329.3,-1765.19 320.653,-1759.84 314,-1753 285.96,-1724.18 307.077,-1697.77 278,-1670 276.534,-1668.6 274.988,-1667.27 273.376,-1666.01"/>
<polygon fill="black" stroke="black" points="275.091,-1662.94 264.846,-1660.24 271.171,-1668.74 275.091,-1662.94"/>
</g>
<!-- Point -->
<g id="node28" class="node"><title>Point</title>
<polygon fill="lightgrey" stroke="black" points="348,-1708 348,-1744 402,-1744 402,-1708 348,-1708"/>
<text text-anchor="middle" x="375" y="-1722.3" font-family="Times,serif" font-size="14.00">Point</text>
</g>
<!-- Point&#45;&gt;AbstractGeometry -->
<g id="edge30" class="edge"><title>Point&#45;&gt;AbstractGeometry</title>
<path fill="none" stroke="black" d="M347.943,-1715.37C337.154,-1710.58 324.689,-1704.54 314,-1698 296.707,-1687.43 295.668,-1679.93 278,-1670 275.126,-1668.38 272.137,-1666.83 269.081,-1665.33"/>
<polygon fill="black" stroke="black" points="270.314,-1662.05 259.768,-1661.03 267.382,-1668.4 270.314,-1662.05"/>
</g>
<!-- Polygon -->
<g id="node29" class="node"><title>Polygon</title>
<polygon fill="lightgrey" stroke="black" points="344,-1653 344,-1689 406,-1689 406,-1653 344,-1653"/>
<text text-anchor="middle" x="375" y="-1667.3" font-family="Times,serif" font-size="14.00">Polygon</text>
</g>
<!-- Polygon&#45;&gt;AbstractGeometry -->
<g id="edge33" class="edge"><title>Polygon&#45;&gt;AbstractGeometry</title>
<path fill="none" stroke="black" d="M343.758,-1665.93C324.512,-1662.7 298.789,-1658.39 274.847,-1654.38"/>
<polygon fill="black" stroke="black" points="275.16,-1650.88 264.719,-1652.68 274.002,-1657.78 275.16,-1650.88"/>
</g>
<!-- LinearRing -->
<g id="node30" class="node"><title>LinearRing</title>
<polygon fill="lightgrey" stroke="black" points="336,-1598 336,-1634 414,-1634 414,-1598 336,-1598"/>
<text text-anchor="middle" x="375" y="-1612.3" font-family="Times,serif" font-size="14.00">LinearRing</text>
</g>
<!-- LinearRing&#45;&gt;AbstractGeometry -->
<g id="edge32" class="edge"><title>LinearRing&#45;&gt;AbstractGeometry</title>
<path fill="none" stroke="black" d="M335.687,-1622.19C317.646,-1625.11 295.578,-1628.68 274.846,-1632.03"/>
<polygon fill="black" stroke="black" points="274.112,-1628.6 264.799,-1633.66 275.229,-1635.51 274.112,-1628.6"/>
</g>
<!-- GroundOverlay -->
<g id="node31" class="node"><title>GroundOverlay</title>
<polygon fill="lightgrey" stroke="black" points="496.5,-1965 496.5,-2001 597.5,-2001 597.5,-1965 496.5,-1965"/>
<text text-anchor="middle" x="547" y="-1979.3" font-family="Times,serif" font-size="14.00">GroundOverlay</text>
</g>
<!-- AbstractOverlay -->
<g id="node43" class="node"><title>AbstractOverlay</title>
<polygon fill="none" stroke="black" points="322,-1938 322,-1974 428,-1974 428,-1938 322,-1938"/>
<text text-anchor="middle" x="375" y="-1952.3" font-family="Times,serif" font-size="14.00">AbstractOverlay</text>
</g>
<!-- GroundOverlay&#45;&gt;AbstractOverlay -->
<g id="edge34" class="edge"><title>GroundOverlay&#45;&gt;AbstractOverlay</title>
<path fill="none" stroke="black" d="M496.372,-1975.12C478.095,-1972.22 457.163,-1968.89 437.934,-1965.84"/>
<polygon fill="black" stroke="black" points="438.482,-1962.38 428.057,-1964.27 437.384,-1969.29 438.482,-1962.38"/>
</g>
<!-- LineStyle -->
<g id="node32" class="node"><title>LineStyle</title>
<polygon fill="lightgrey" stroke="black" points="512.5,-1210 512.5,-1246 581.5,-1246 581.5,-1210 512.5,-1210"/>
<text text-anchor="middle" x="547" y="-1224.3" font-family="Times,serif" font-size="14.00">LineStyle</text>
</g>
<!-- AbstractColorStyle -->
<g id="node62" class="node"><title>AbstractColorStyle</title>
<polygon fill="none" stroke="black" points="314.5,-1127 314.5,-1163 435.5,-1163 435.5,-1127 314.5,-1127"/>
<text text-anchor="middle" x="375" y="-1141.3" font-family="Times,serif" font-size="14.00">AbstractColorStyle</text>
</g>
<!-- LineStyle&#45;&gt;AbstractColorStyle -->
<g id="edge47" class="edge"><title>LineStyle&#45;&gt;AbstractColorStyle</title>
<path fill="none" stroke="black" d="M512.263,-1217.63C499.287,-1213.04 484.578,-1207.06 472,-1200 454.323,-1190.08 453.365,-1182.46 436,-1172 433.569,-1170.54 431.044,-1169.1 428.468,-1167.71"/>
<polygon fill="black" stroke="black" points="430.058,-1164.59 419.566,-1163.12 426.85,-1170.81 430.058,-1164.59"/>
</g>
<!-- PolyStyle -->
<g id="node33" class="node"><title>PolyStyle</title>
<polygon fill="lightgrey" stroke="black" points="512.5,-1155 512.5,-1191 581.5,-1191 581.5,-1155 512.5,-1155"/>
<text text-anchor="middle" x="547" y="-1169.3" font-family="Times,serif" font-size="14.00">PolyStyle</text>
</g>
<!-- PolyStyle&#45;&gt;AbstractColorStyle -->
<g id="edge48" class="edge"><title>PolyStyle&#45;&gt;AbstractColorStyle</title>
<path fill="none" stroke="black" d="M512.413,-1167.47C493.364,-1164.33 468.796,-1160.28 445.769,-1156.49"/>
<polygon fill="black" stroke="black" points="446.106,-1153 435.67,-1154.83 444.969,-1159.91 446.106,-1153"/>
</g>
<!-- IconStyle -->
<g id="node34" class="node"><title>IconStyle</title>
<polygon fill="lightgrey" stroke="black" points="513,-1100 513,-1136 581,-1136 581,-1100 513,-1100"/>
<text text-anchor="middle" x="547" y="-1114.3" font-family="Times,serif" font-size="14.00">IconStyle</text>
</g>
<!-- IconStyle&#45;&gt;AbstractColorStyle -->
<g id="edge44" class="edge"><title>IconStyle&#45;&gt;AbstractColorStyle</title>
<path fill="none" stroke="black" d="M512.819,-1123.27C493.712,-1126.3 468.956,-1130.24 445.765,-1133.92"/>
<polygon fill="black" stroke="black" points="444.922,-1130.51 435.595,-1135.53 446.02,-1137.42 444.922,-1130.51"/>
</g>
<!-- vec2 -->
<g id="node35" class="node"><title>vec2</title>
<polygon fill="none" stroke="black" points="520,-2156 520,-2192 574,-2192 574,-2156 520,-2156"/>
<text text-anchor="middle" x="547" y="-2170.3" font-family="Times,serif" font-size="14.00">vec2</text>
</g>
<!-- AbstractObject -->
<g id="node36" class="node"><title>AbstractObject</title>
<polygon fill="none" stroke="black" points="0,-1314 0,-1360 98,-1360 98,-1314 0,-1314"/>
<text text-anchor="middle" x="49" y="-1344.8" font-family="Times,serif" font-size="14.00">AbstractObject</text>
<polyline fill="none" stroke="black" points="0,-1337 98,-1337 "/>
<text text-anchor="middle" x="49" y="-1321.8" font-family="Times,serif" font-size="14.00">Id : string</text>
</g>
<!-- AbstractFeature&#45;&gt;AbstractObject -->
<g id="edge13" class="edge"><title>AbstractFeature&#45;&gt;AbstractObject</title>
<path fill="none" stroke="black" d="M168.093,-1817.9C156.119,-1788.89 143.49,-1755.86 134,-1725 94.3891,-1596.18 66.2818,-1437.78 55.2148,-1370.15"/>
<polygon fill="black" stroke="black" points="58.6397,-1369.4 53.5857,-1360.09 51.7297,-1370.52 58.6397,-1369.4"/>
</g>
<!-- AbstractView -->
<g id="node38" class="node"><title>AbstractView</title>
<polygon fill="none" stroke="black" points="160,-1680 160,-1716 252,-1716 252,-1680 160,-1680"/>
<text text-anchor="middle" x="206" y="-1694.3" font-family="Times,serif" font-size="14.00">AbstractView</text>
</g>
<!-- AbstractView&#45;&gt;AbstractObject -->
<g id="edge14" class="edge"><title>AbstractView&#45;&gt;AbstractObject</title>
<path fill="none" stroke="black" d="M159.654,-1687.47C150.08,-1683.39 140.824,-1677.76 134,-1670 94.5102,-1625.08 65.3239,-1446.03 54.5464,-1370.69"/>
<polygon fill="black" stroke="black" points="57.9513,-1369.77 53.0909,-1360.35 51.0197,-1370.74 57.9513,-1369.77"/>
</g>
<!-- AbstractGeometry&#45;&gt;AbstractObject -->
<g id="edge15" class="edge"><title>AbstractGeometry&#45;&gt;AbstractObject</title>
<path fill="none" stroke="black" d="M195.768,-1624.77C170.29,-1574.48 98.7374,-1433.22 66.3232,-1369.23"/>
<polygon fill="black" stroke="black" points="69.2932,-1367.34 61.6522,-1360 63.0487,-1370.51 69.2932,-1367.34"/>
</g>
<!-- AbstractStyleSelector&#45;&gt;AbstractObject -->
<g id="edge16" class="edge"><title>AbstractStyleSelector&#45;&gt;AbstractObject</title>
<path fill="none" stroke="black" d="M150.236,-1456.99C144.506,-1454.07 138.969,-1450.75 134,-1447 106.122,-1425.93 82.8108,-1393.3 67.8739,-1369.05"/>
<polygon fill="black" stroke="black" points="70.7132,-1366.98 62.5671,-1360.2 64.7107,-1370.58 70.7132,-1366.98"/>
</g>
<!-- AbstractTimePrimitive -->
<g id="node41" class="node"><title>AbstractTimePrimitive</title>
<polygon fill="none" stroke="black" points="134.5,-1402 134.5,-1438 277.5,-1438 277.5,-1402 134.5,-1402"/>
<text text-anchor="middle" x="206" y="-1416.3" font-family="Times,serif" font-size="14.00">AbstractTimePrimitive</text>
</g>
<!-- AbstractTimePrimitive&#45;&gt;AbstractObject -->
<g id="edge17" class="edge"><title>AbstractTimePrimitive&#45;&gt;AbstractObject</title>
<path fill="none" stroke="black" d="M155.151,-1401.84C147.948,-1398.79 140.707,-1395.47 134,-1392 119.27,-1384.37 103.884,-1374.82 90.3659,-1365.82"/>
<polygon fill="black" stroke="black" points="92.0224,-1362.72 81.7777,-1360.02 88.1019,-1368.52 92.0224,-1362.72"/>
</g>
<!-- AbstractContainer&#45;&gt;AbstractFeature -->
<g id="edge18" class="edge"><title>AbstractContainer&#45;&gt;AbstractFeature</title>
<path fill="none" stroke="black" d="M351.824,-2019.81C329.914,-2001.83 295.452,-1973.56 265.641,-1949.11"/>
<polygon fill="black" stroke="black" points="267.724,-1946.29 257.772,-1942.65 263.284,-1951.7 267.724,-1946.29"/>
</g>
<!-- AbstractOverlay&#45;&gt;AbstractFeature -->
<g id="edge19" class="edge"><title>AbstractOverlay&#45;&gt;AbstractFeature</title>
<path fill="none" stroke="black" d="M321.618,-1938.75C304.427,-1933.09 285.183,-1926.75 267.444,-1920.91"/>
<polygon fill="black" stroke="black" points="268.36,-1917.52 257.767,-1917.72 266.17,-1924.17 268.36,-1917.52"/>
</g>
<!-- NetworkLink -->
<g id="node44" class="node"><title>NetworkLink</title>
<polygon fill="none" stroke="black" points="330.5,-1883 330.5,-1919 419.5,-1919 419.5,-1883 330.5,-1883"/>
<text text-anchor="middle" x="375" y="-1897.3" font-family="Times,serif" font-size="14.00">NetworkLink</text>
</g>
<!-- NetworkLink&#45;&gt;AbstractFeature -->
<g id="edge23" class="edge"><title>NetworkLink&#45;&gt;AbstractFeature</title>
<path fill="none" stroke="black" d="M330.123,-1901C311.108,-1901 288.525,-1901 267.924,-1901"/>
<polygon fill="black" stroke="black" points="267.679,-1897.5 257.679,-1901 267.679,-1904.5 267.679,-1897.5"/>
</g>
<!-- Kml -->
<g id="node45" class="node"><title>Kml</title>
<polygon fill="none" stroke="black" points="520,-2211 520,-2247 574,-2247 574,-2211 520,-2211"/>
<text text-anchor="middle" x="547" y="-2225.3" font-family="Times,serif" font-size="14.00">Kml</text>
</g>
<!-- NetworkLinkControl -->
<g id="node46" class="node"><title>NetworkLinkControl</title>
<polygon fill="none" stroke="black" points="481.5,-2266 481.5,-2302 612.5,-2302 612.5,-2266 481.5,-2266"/>
<text text-anchor="middle" x="547" y="-2280.3" font-family="Times,serif" font-size="14.00">NetworkLinkControl</text>
</g>
<!-- Schema -->
<g id="node47" class="node"><title>Schema</title>
<polygon fill="none" stroke="black" points="517,-2321 517,-2357 577,-2357 577,-2321 517,-2321"/>
<text text-anchor="middle" x="547" y="-2335.3" font-family="Times,serif" font-size="14.00">Schema</text>
</g>
<!-- Region -->
<g id="node48" class="node"><title>Region</title>
<polygon fill="none" stroke="black" points="178,-1347 178,-1383 234,-1383 234,-1347 178,-1347"/>
<text text-anchor="middle" x="206" y="-1361.3" font-family="Times,serif" font-size="14.00">Region</text>
</g>
<!-- Region&#45;&gt;AbstractObject -->
<g id="edge25" class="edge"><title>Region&#45;&gt;AbstractObject</title>
<path fill="none" stroke="black" d="M177.646,-1360.06C158.406,-1356.58 131.941,-1351.8 108.096,-1347.49"/>
<polygon fill="black" stroke="black" points="108.528,-1344.02 98.065,-1345.68 107.284,-1350.9 108.528,-1344.02"/>
</g>
<!-- LatLonAltBox -->
<g id="node49" class="node"><title>LatLonAltBox</title>
<polygon fill="none" stroke="black" points="327,-1292 327,-1328 423,-1328 423,-1292 327,-1292"/>
<text text-anchor="middle" x="375" y="-1306.3" font-family="Times,serif" font-size="14.00">LatLonAltBox</text>
</g>
<!-- AbstractLatLonBox -->
<g id="node50" class="node"><title>AbstractLatLonBox</title>
<polygon fill="none" stroke="black" points="143.5,-1292 143.5,-1328 268.5,-1328 268.5,-1292 143.5,-1292"/>
<text text-anchor="middle" x="206" y="-1306.3" font-family="Times,serif" font-size="14.00">AbstractLatLonBox</text>
</g>
<!-- LatLonAltBox&#45;&gt;AbstractLatLonBox -->
<g id="edge26" class="edge"><title>LatLonAltBox&#45;&gt;AbstractLatLonBox</title>
<path fill="none" stroke="black" d="M326.591,-1310C311.658,-1310 294.818,-1310 278.59,-1310"/>
<polygon fill="black" stroke="black" points="278.588,-1306.5 268.588,-1310 278.588,-1313.5 278.588,-1306.5"/>
</g>
<!-- AbstractLatLonBox&#45;&gt;AbstractObject -->
<g id="edge35" class="edge"><title>AbstractLatLonBox&#45;&gt;AbstractObject</title>
<path fill="none" stroke="black" d="M143.295,-1320.75C131.672,-1322.77 119.554,-1324.88 108.048,-1326.89"/>
<polygon fill="black" stroke="black" points="107.373,-1323.45 98.1221,-1328.62 108.574,-1330.35 107.373,-1323.45"/>
</g>
<!-- Lod -->
<g id="node51" class="node"><title>Lod</title>
<polygon fill="none" stroke="black" points="179,-1237 179,-1273 233,-1273 233,-1237 179,-1237"/>
<text text-anchor="middle" x="206" y="-1251.3" font-family="Times,serif" font-size="14.00">Lod</text>
</g>
<!-- Lod&#45;&gt;AbstractObject -->
<g id="edge27" class="edge"><title>Lod&#45;&gt;AbstractObject</title>
<path fill="none" stroke="black" d="M178.787,-1263.44C165.13,-1268.22 148.333,-1274.69 134,-1282 119.223,-1289.53 103.826,-1299.07 90.3109,-1308.07"/>
<polygon fill="black" stroke="black" points="88.0437,-1305.38 81.7269,-1313.89 91.9693,-1311.18 88.0437,-1305.38"/>
</g>
<!-- Link -->
<g id="node52" class="node"><title>Link</title>
<polygon fill="none" stroke="black" points="348,-1182 348,-1218 402,-1218 402,-1182 348,-1182"/>
<text text-anchor="middle" x="375" y="-1196.3" font-family="Times,serif" font-size="14.00">Link</text>
</g>
<!-- BasicLink -->
<g id="node53" class="node"><title>BasicLink</title>
<polygon fill="none" stroke="black" points="170,-1182 170,-1218 242,-1218 242,-1182 170,-1182"/>
<text text-anchor="middle" x="206" y="-1196.3" font-family="Times,serif" font-size="14.00">BasicLink</text>
</g>
<!-- Link&#45;&gt;BasicLink -->
<g id="edge28" class="edge"><title>Link&#45;&gt;BasicLink</title>
<path fill="none" stroke="black" d="M347.906,-1200C322.356,-1200 282.908,-1200 252.242,-1200"/>
<polygon fill="black" stroke="black" points="252.212,-1196.5 242.212,-1200 252.212,-1203.5 252.212,-1196.5"/>
</g>
<!-- BasicLink&#45;&gt;AbstractObject -->
<g id="edge45" class="edge"><title>BasicLink&#45;&gt;AbstractObject</title>
<path fill="none" stroke="black" d="M169.812,-1209.07C157.716,-1213.27 144.57,-1219.11 134,-1227 105.993,-1247.9 82.6998,-1280.55 67.802,-1304.86"/>
<polygon fill="black" stroke="black" points="64.6301,-1303.34 62.511,-1313.72 70.6411,-1306.93 64.6301,-1303.34"/>
</g>
<!-- MultiGeometry -->
<g id="node54" class="node"><title>MultiGeometry</title>
<polygon fill="none" stroke="black" points="324,-1543 324,-1579 426,-1579 426,-1543 324,-1543"/>
<text text-anchor="middle" x="375" y="-1557.3" font-family="Times,serif" font-size="14.00">MultiGeometry</text>
</g>
<!-- MultiGeometry&#45;&gt;AbstractGeometry -->
<g id="edge29" class="edge"><title>MultiGeometry&#45;&gt;AbstractGeometry</title>
<path fill="none" stroke="black" d="M333.201,-1579.02C326.751,-1581.96 320.175,-1585.03 314,-1588 292.719,-1598.25 269.359,-1610.18 249.91,-1620.3"/>
<polygon fill="black" stroke="black" points="248.231,-1617.23 240.987,-1624.96 251.471,-1623.43 248.231,-1617.23"/>
</g>
<!-- Boundary -->
<g id="node55" class="node"><title>Boundary</title>
<polygon fill="none" stroke="black" points="512,-2376 512,-2412 582,-2412 582,-2376 512,-2376"/>
<text text-anchor="middle" x="547" y="-2390.3" font-family="Times,serif" font-size="14.00">Boundary</text>
</g>
<!-- LatLonBox -->
<g id="node56" class="node"><title>LatLonBox</title>
<polygon fill="none" stroke="black" points="335.5,-1237 335.5,-1273 414.5,-1273 414.5,-1237 335.5,-1237"/>
<text text-anchor="middle" x="375" y="-1251.3" font-family="Times,serif" font-size="14.00">LatLonBox</text>
</g>
<!-- LatLonBox&#45;&gt;AbstractLatLonBox -->
<g id="edge36" class="edge"><title>LatLonBox&#45;&gt;AbstractLatLonBox</title>
<path fill="none" stroke="black" d="M335.267,-1267.76C316.383,-1273.98 293.162,-1281.62 271.691,-1288.69"/>
<polygon fill="black" stroke="black" points="270.374,-1285.44 261.971,-1291.9 272.564,-1292.09 270.374,-1285.44"/>
</g>
<!-- ScreenOverlay -->
<g id="node57" class="node"><title>ScreenOverlay</title>
<polygon fill="none" stroke="black" points="498.5,-1910 498.5,-1946 595.5,-1946 595.5,-1910 498.5,-1910"/>
<text text-anchor="middle" x="547" y="-1924.3" font-family="Times,serif" font-size="14.00">ScreenOverlay</text>
</g>
<!-- ScreenOverlay&#45;&gt;AbstractOverlay -->
<g id="edge37" class="edge"><title>ScreenOverlay&#45;&gt;AbstractOverlay</title>
<path fill="none" stroke="black" d="M498.193,-1935.87C479.542,-1938.95 457.916,-1942.51 438.087,-1945.77"/>
<polygon fill="black" stroke="black" points="437.512,-1942.32 428.213,-1947.4 438.649,-1949.23 437.512,-1942.32"/>
</g>
<!-- PhotoOverlay -->
<g id="node58" class="node"><title>PhotoOverlay</title>
<polygon fill="none" stroke="black" points="501,-1855 501,-1891 593,-1891 593,-1855 501,-1855"/>
<text text-anchor="middle" x="547" y="-1869.3" font-family="Times,serif" font-size="14.00">PhotoOverlay</text>
</g>
<!-- PhotoOverlay&#45;&gt;AbstractOverlay -->
<g id="edge38" class="edge"><title>PhotoOverlay&#45;&gt;AbstractOverlay</title>
<path fill="none" stroke="black" d="M500.791,-1886.96C491.042,-1890.66 480.974,-1895.03 472,-1900 454.265,-1909.81 453.293,-1917.43 436,-1928 433.067,-1929.79 430.001,-1931.55 426.872,-1933.25"/>
<polygon fill="black" stroke="black" points="425.2,-1930.18 417.948,-1937.9 428.434,-1936.39 425.2,-1930.18"/>
</g>
<!-- ViewVolume -->
<g id="node59" class="node"><title>ViewVolume</title>
<polygon fill="none" stroke="black" points="161,-1127 161,-1163 251,-1163 251,-1127 161,-1127"/>
<text text-anchor="middle" x="206" y="-1141.3" font-family="Times,serif" font-size="14.00">ViewVolume</text>
</g>
<!-- ViewVolume&#45;&gt;AbstractObject -->
<g id="edge39" class="edge"><title>ViewVolume&#45;&gt;AbstractObject</title>
<path fill="none" stroke="black" d="M160.858,-1156.04C151.235,-1159.94 141.654,-1165.13 134,-1172 93.9919,-1207.92 70.4038,-1267.35 58.859,-1304.22"/>
<polygon fill="black" stroke="black" points="55.4506,-1303.4 55.9185,-1313.99 62.1533,-1305.42 55.4506,-1303.4"/>
</g>
<!-- StyleMap -->
<g id="node60" class="node"><title>StyleMap</title>
<polygon fill="none" stroke="black" points="340,-1347 340,-1383 410,-1383 410,-1347 340,-1347"/>
<text text-anchor="middle" x="375" y="-1361.3" font-family="Times,serif" font-size="14.00">StyleMap</text>
</g>
<!-- StyleMap&#45;&gt;AbstractStyleSelector -->
<g id="edge41" class="edge"><title>StyleMap&#45;&gt;AbstractStyleSelector</title>
<path fill="none" stroke="black" d="M339.997,-1376.98C330.946,-1381.16 321.586,-1386.48 314,-1393 292.12,-1411.8 300.443,-1428.88 278,-1447 275.97,-1448.64 273.833,-1450.19 271.616,-1451.66"/>
<polygon fill="black" stroke="black" points="269.552,-1448.82 262.735,-1456.92 273.122,-1454.84 269.552,-1448.82"/>
</g>
<!-- AbstractSubStyle -->
<g id="node61" class="node"><title>AbstractSubStyle</title>
<polygon fill="none" stroke="black" points="150.5,-1072 150.5,-1108 261.5,-1108 261.5,-1072 150.5,-1072"/>
<text text-anchor="middle" x="206" y="-1086.3" font-family="Times,serif" font-size="14.00">AbstractSubStyle</text>
</g>
<!-- AbstractSubStyle&#45;&gt;AbstractObject -->
<g id="edge42" class="edge"><title>AbstractSubStyle&#45;&gt;AbstractObject</title>
<path fill="none" stroke="black" d="M150.486,-1105.07C144.44,-1108.32 138.759,-1112.25 134,-1117 82.0934,-1168.84 61.6836,-1256.09 54.1181,-1303.64"/>
<polygon fill="black" stroke="black" points="50.6288,-1303.31 52.6138,-1313.72 57.552,-1304.34 50.6288,-1303.31"/>
</g>
<!-- AbstractColorStyle&#45;&gt;AbstractSubStyle -->
<g id="edge43" class="edge"><title>AbstractColorStyle&#45;&gt;AbstractSubStyle</title>
<path fill="none" stroke="black" d="M319.318,-1126.99C303.957,-1121.93 287.112,-1116.38 271.248,-1111.16"/>
<polygon fill="black" stroke="black" points="272.113,-1107.76 261.52,-1107.96 269.923,-1114.41 272.113,-1107.76"/>
</g>
<!-- LabelStyle -->
<g id="node63" class="node"><title>LabelStyle</title>
<polygon fill="none" stroke="black" points="509.5,-1045 509.5,-1081 584.5,-1081 584.5,-1045 509.5,-1045"/>
<text text-anchor="middle" x="547" y="-1059.3" font-family="Times,serif" font-size="14.00">LabelStyle</text>
</g>
<!-- LabelStyle&#45;&gt;AbstractColorStyle -->
<g id="edge46" class="edge"><title>LabelStyle&#45;&gt;AbstractColorStyle</title>
<path fill="none" stroke="black" d="M509.318,-1073.99C497.111,-1078.27 483.663,-1083.68 472,-1090 454.417,-1099.53 453.154,-1106.72 436,-1117 433.001,-1118.8 429.867,-1120.56 426.673,-1122.28"/>
<polygon fill="black" stroke="black" points="424.859,-1119.28 417.574,-1126.97 428.066,-1125.5 424.859,-1119.28"/>
</g>
<!-- BalloonStyle -->
<g id="node64" class="node"><title>BalloonStyle</title>
<polygon fill="none" stroke="black" points="331.5,-1072 331.5,-1108 418.5,-1108 418.5,-1072 331.5,-1072"/>
<text text-anchor="middle" x="375" y="-1086.3" font-family="Times,serif" font-size="14.00">BalloonStyle</text>
</g>
<!-- BalloonStyle&#45;&gt;AbstractSubStyle -->
<g id="edge49" class="edge"><title>BalloonStyle&#45;&gt;AbstractSubStyle</title>
<path fill="none" stroke="black" d="M331.427,-1090C313.239,-1090 291.611,-1090 271.528,-1090"/>
<polygon fill="black" stroke="black" points="271.505,-1086.5 261.505,-1090 271.505,-1093.5 271.505,-1086.5"/>
</g>
<!-- ListStyle -->
<g id="node65" class="node"><title>ListStyle</title>
<polygon fill="none" stroke="black" points="342.5,-1017 342.5,-1053 407.5,-1053 407.5,-1017 342.5,-1017"/>
<text text-anchor="middle" x="375" y="-1031.3" font-family="Times,serif" font-size="14.00">ListStyle</text>
</g>
<!-- ListStyle&#45;&gt;AbstractSubStyle -->
<g id="edge50" class="edge"><title>ListStyle&#45;&gt;AbstractSubStyle</title>
<path fill="none" stroke="black" d="M342.195,-1045.47C322.145,-1052.08 295.537,-1060.84 271.233,-1068.85"/>
<polygon fill="black" stroke="black" points="270.1,-1065.53 261.696,-1071.99 272.29,-1072.18 270.1,-1065.53"/>
</g>
<!-- ItemIcon -->
<g id="node66" class="node"><title>ItemIcon</title>
<polygon fill="none" stroke="black" points="173,-1017 173,-1053 239,-1053 239,-1017 173,-1017"/>
<text text-anchor="middle" x="206" y="-1031.3" font-family="Times,serif" font-size="14.00">ItemIcon</text>
</g>
<!-- ItemIcon&#45;&gt;AbstractObject -->
<g id="edge51" class="edge"><title>ItemIcon&#45;&gt;AbstractObject</title>
<path fill="none" stroke="black" d="M172.816,-1040.67C159.205,-1044.58 144.179,-1051.12 134,-1062 69.9326,-1130.51 54.6604,-1246.59 51.0689,-1303.51"/>
<polygon fill="black" stroke="black" points="47.5603,-1303.57 50.5101,-1313.75 54.5499,-1303.95 47.5603,-1303.57"/>
</g>
</g>
</svg>
