<?xml version="1.0" encoding="UTF-8" standalone="no"?>
<!DOCTYPE svg PUBLIC "-//W3C//DTD SVG 1.1//EN"
 "http://www.w3.org/Graphics/SVG/1.1/DTD/svg11.dtd">
<!-- Generated by graphviz version 2.36.0 (20140111.2315)
 -->
<!-- Title: g Pages: 1 -->
<svg width="612pt" height="1033pt"
 viewBox="0.00 0.00 612.00 1033.00" xmlns="http://www.w3.org/2000/svg" xmlns:xlink="http://www.w3.org/1999/xlink">
<g id="graph0" class="graph" transform="scale(1 1) rotate(0) translate(4 1029)">
<title>g</title>
<polygon fill="white" stroke="none" points="-4,4 -4,-1029 608,-1029 608,4 -4,4"/>
<!-- Document -->
<g id="node1" class="node"><title>Document</title>
<polygon fill="lightgrey" stroke="black" points="501,-633.5 501,-694.5 575,-694.5 575,-633.5 501,-633.5"/>
<text text-anchor="middle" x="538" y="-679.3" font-family="Times,serif" font-size="14.00">Document</text>
<polyline fill="none" stroke="black" points="501,-671.5 575,-671.5 "/>
<text text-anchor="start" x="509" y="-656.3" font-family="Times,serif" font-size="14.00">Features</text>
<text text-anchor="start" x="509" y="-641.3" font-family="Times,serif" font-size="14.00">Schemas</text>
</g>
<!-- AbstractContainer -->
<g id="node19" class="node"><title>AbstractContainer</title>
<polygon fill="none" stroke="black" points="317,-646 317,-682 433,-682 433,-646 317,-646"/>
<text text-anchor="middle" x="375" y="-660.3" font-family="Times,serif" font-size="14.00">AbstractContainer</text>
</g>
<!-- Document&#45;&gt;AbstractContainer -->
<g id="edge8" class="edge"><title>Document&#45;&gt;AbstractContainer</title>
<path fill="none" stroke="black" d="M500.868,-664C483.894,-664 463.093,-664 443.372,-664"/>
<polygon fill="black" stroke="black" points="443.183,-660.5 433.183,-664 443.183,-667.5 443.183,-660.5"/>
</g>
<!-- Folder -->
<g id="node2" class="node"><title>Folder</title>
<polygon fill="lightgrey" stroke="black" points="511,-714 511,-750 565,-750 565,-714 511,-714"/>
<text text-anchor="middle" x="538" y="-728.3" font-family="Times,serif" font-size="14.00">Folder</text>
</g>
<!-- Folder&#45;&gt;AbstractContainer -->
<g id="edge9" class="edge"><title>Folder&#45;&gt;AbstractContainer</title>
<path fill="none" stroke="black" d="M510.774,-720.923C488.536,-711.531 455.955,-697.77 428.397,-686.131"/>
<polygon fill="black" stroke="black" points="429.459,-682.779 418.885,-682.113 426.735,-689.228 429.459,-682.779"/>
</g>
<!-- Placemark -->
<g id="node3" class="node"><title>Placemark</title>
<polygon fill="lightgrey" stroke="black" points="338,-581 338,-627 412,-627 412,-581 338,-581"/>
<text text-anchor="middle" x="375" y="-611.8" font-family="Times,serif" font-size="14.00">Placemark</text>
<polyline fill="none" stroke="black" points="338,-604 412,-604 "/>
<text text-anchor="middle" x="375" y="-588.8" font-family="Times,serif" font-size="14.00">geometry</text>
</g>
<!-- AbstractFeature -->
<g id="node14" class="node"><title>AbstractFeature</title>
<polygon fill="none" stroke="black" points="154.5,-508 154.5,-674 257.5,-674 257.5,-508 154.5,-508"/>
<text text-anchor="middle" x="206" y="-658.8" font-family="Times,serif" font-size="14.00">AbstractFeature</text>
<polyline fill="none" stroke="black" points="154.5,-651 257.5,-651 "/>
<text text-anchor="start" x="162.5" y="-635.8" font-family="Times,serif" font-size="14.00">name</text>
<text text-anchor="start" x="162.5" y="-620.8" font-family="Times,serif" font-size="14.00">visibility</text>
<text text-anchor="start" x="162.5" y="-605.8" font-family="Times,serif" font-size="14.00">open</text>
<text text-anchor="start" x="162.5" y="-590.8" font-family="Times,serif" font-size="14.00">address</text>
<text text-anchor="start" x="162.5" y="-575.8" font-family="Times,serif" font-size="14.00">phone</text>
<text text-anchor="start" x="162.5" y="-560.8" font-family="Times,serif" font-size="14.00">region</text>
<text text-anchor="start" x="162.5" y="-545.8" font-family="Times,serif" font-size="14.00">description</text>
<text text-anchor="start" x="162.5" y="-530.8" font-family="Times,serif" font-size="14.00">styleUrl</text>
<text text-anchor="start" x="162.5" y="-515.8" font-family="Times,serif" font-size="14.00">StyleSelector</text>
</g>
<!-- Placemark&#45;&gt;AbstractFeature -->
<g id="edge10" class="edge"><title>Placemark&#45;&gt;AbstractFeature</title>
<path fill="none" stroke="black" d="M337.763,-601.179C317.374,-599.592 291.378,-597.568 267.944,-595.744"/>
<polygon fill="black" stroke="black" points="267.978,-592.236 257.736,-594.95 267.434,-599.215 267.978,-592.236"/>
</g>
<!-- Style -->
<g id="node4" class="node"><title>Style</title>
<polygon fill="lightgrey" stroke="black" points="333.5,-330.5 333.5,-451.5 416.5,-451.5 416.5,-330.5 333.5,-330.5"/>
<text text-anchor="middle" x="375" y="-436.3" font-family="Times,serif" font-size="14.00">Style</text>
<polyline fill="none" stroke="black" points="333.5,-428.5 416.5,-428.5 "/>
<text text-anchor="start" x="341.5" y="-413.3" font-family="Times,serif" font-size="14.00">IconStyle</text>
<text text-anchor="start" x="341.5" y="-398.3" font-family="Times,serif" font-size="14.00">LineStyle</text>
<text text-anchor="start" x="341.5" y="-383.3" font-family="Times,serif" font-size="14.00">PolyStyle</text>
<text text-anchor="start" x="341.5" y="-368.3" font-family="Times,serif" font-size="14.00">BaloonStyle</text>
<text text-anchor="start" x="341.5" y="-353.3" font-family="Times,serif" font-size="14.00">ListStyle</text>
<text text-anchor="start" x="341.5" y="-338.3" font-family="Times,serif" font-size="14.00">LabelStyle</text>
</g>
<!-- AbstractStyleSelector -->
<g id="node17" class="node"><title>AbstractStyleSelector</title>
<polygon fill="none" stroke="black" points="139,-440 139,-476 273,-476 273,-440 139,-440"/>
<text text-anchor="middle" x="206" y="-454.3" font-family="Times,serif" font-size="14.00">AbstractStyleSelector</text>
</g>
<!-- Style&#45;&gt;AbstractStyleSelector -->
<g id="edge27" class="edge"><title>Style&#45;&gt;AbstractStyleSelector</title>
<path fill="none" stroke="black" d="M333.398,-407.602C316.31,-414.561 296.204,-422.713 278,-430 272.926,-432.031 267.643,-434.135 262.351,-436.235"/>
<polygon fill="black" stroke="black" points="260.868,-433.058 252.859,-439.994 263.445,-439.566 260.868,-433.058"/>
</g>
<!-- LineString -->
<g id="node5" class="node"><title>LineString</title>
<polygon fill="lightgrey" stroke="black" points="338,-866 338,-902 412,-902 412,-866 338,-866"/>
<text text-anchor="middle" x="375" y="-880.3" font-family="Times,serif" font-size="14.00">LineString</text>
</g>
<!-- AbstractGeometry -->
<g id="node16" class="node"><title>AbstractGeometry</title>
<polygon fill="none" stroke="black" points="147.5,-838 147.5,-874 264.5,-874 264.5,-838 147.5,-838"/>
<text text-anchor="middle" x="206" y="-852.3" font-family="Times,serif" font-size="14.00">AbstractGeometry</text>
</g>
<!-- LineString&#45;&gt;AbstractGeometry -->
<g id="edge18" class="edge"><title>LineString&#45;&gt;AbstractGeometry</title>
<path fill="none" stroke="black" d="M337.763,-877.924C319.296,-874.828 296.229,-870.961 274.633,-867.34"/>
<polygon fill="black" stroke="black" points="274.948,-863.844 264.507,-865.642 273.79,-870.747 274.948,-863.844"/>
</g>
<!-- Point -->
<g id="node6" class="node"><title>Point</title>
<polygon fill="lightgrey" stroke="black" points="348,-811 348,-847 402,-847 402,-811 348,-811"/>
<text text-anchor="middle" x="375" y="-825.3" font-family="Times,serif" font-size="14.00">Point</text>
</g>
<!-- Point&#45;&gt;AbstractGeometry -->
<g id="edge17" class="edge"><title>Point&#45;&gt;AbstractGeometry</title>
<path fill="none" stroke="black" d="M347.906,-833.219C328.308,-836.387 300.531,-840.878 274.814,-845.036"/>
<polygon fill="black" stroke="black" points="274.019,-841.619 264.706,-846.67 275.136,-848.529 274.019,-841.619"/>
</g>
<!-- Polygon -->
<g id="node7" class="node"><title>Polygon</title>
<polygon fill="lightgrey" stroke="black" points="344,-756 344,-792 406,-792 406,-756 344,-756"/>
<text text-anchor="middle" x="375" y="-770.3" font-family="Times,serif" font-size="14.00">Polygon</text>
</g>
<!-- Polygon&#45;&gt;AbstractGeometry -->
<g id="edge20" class="edge"><title>Polygon&#45;&gt;AbstractGeometry</title>
<path fill="none" stroke="black" d="M343.698,-787.92C334.165,-792.359 323.617,-797.331 314,-802 293.249,-812.075 270.405,-823.551 251.172,-833.325"/>
<polygon fill="black" stroke="black" points="249.368,-830.316 242.045,-837.972 252.544,-836.553 249.368,-830.316"/>
</g>
<!-- LinearRing -->
<g id="node8" class="node"><title>LinearRing</title>
<polygon fill="lightgrey" stroke="black" points="336,-976 336,-1012 414,-1012 414,-976 336,-976"/>
<text text-anchor="middle" x="375" y="-990.3" font-family="Times,serif" font-size="14.00">LinearRing</text>
</g>
<!-- LinearRing&#45;&gt;AbstractGeometry -->
<g id="edge19" class="edge"><title>LinearRing&#45;&gt;AbstractGeometry</title>
<path fill="none" stroke="black" d="M335.708,-978.674C328.23,-974.988 320.652,-970.728 314,-966 280.201,-941.976 247.947,-906.502 227.854,-882.382"/>
<polygon fill="black" stroke="black" points="230.321,-879.871 221.272,-874.361 224.91,-884.312 230.321,-879.871"/>
</g>
<!-- GroundOverlay -->
<g id="node9" class="node"><title>GroundOverlay</title>
<polygon fill="lightgrey" stroke="black" points="487.5,-578 487.5,-614 588.5,-614 588.5,-578 487.5,-578"/>
<text text-anchor="middle" x="538" y="-592.3" font-family="Times,serif" font-size="14.00">GroundOverlay</text>
</g>
<!-- AbstractOverlay -->
<g id="node20" class="node"><title>AbstractOverlay</title>
<polygon fill="none" stroke="black" points="322,-526 322,-562 428,-562 428,-526 322,-526"/>
<text text-anchor="middle" x="375" y="-540.3" font-family="Times,serif" font-size="14.00">AbstractOverlay</text>
</g>
<!-- GroundOverlay&#45;&gt;AbstractOverlay -->
<g id="edge21" class="edge"><title>GroundOverlay&#45;&gt;AbstractOverlay</title>
<path fill="none" stroke="black" d="M487.381,-579.974C471.702,-574.91 454.181,-569.251 437.762,-563.948"/>
<polygon fill="black" stroke="black" points="438.835,-560.617 428.243,-560.874 436.684,-567.278 438.835,-560.617"/>
</g>
<!-- LineStyle -->
<g id="node10" class="node"><title>LineStyle</title>
<polygon fill="lightgrey" stroke="black" points="503.5,-83 503.5,-119 572.5,-119 572.5,-83 503.5,-83"/>
<text text-anchor="middle" x="538" y="-97.3" font-family="Times,serif" font-size="14.00">LineStyle</text>
</g>
<!-- AbstractColorStyle -->
<g id="node40" class="node"><title>AbstractColorStyle</title>
<polygon fill="none" stroke="black" points="314.5,-110 314.5,-146 435.5,-146 435.5,-110 314.5,-110"/>
<text text-anchor="middle" x="375" y="-124.3" font-family="Times,serif" font-size="14.00">AbstractColorStyle</text>
</g>
<!-- LineStyle&#45;&gt;AbstractColorStyle -->
<g id="edge34" class="edge"><title>LineStyle&#45;&gt;AbstractColorStyle</title>
<path fill="none" stroke="black" d="M503.249,-106.66C486.526,-109.465 465.685,-112.96 445.74,-116.304"/>
<polygon fill="black" stroke="black" points="445.016,-112.877 435.732,-117.983 446.174,-119.781 445.016,-112.877"/>
</g>
<!-- PolyStyle -->
<g id="node11" class="node"><title>PolyStyle</title>
<polygon fill="lightgrey" stroke="black" points="503.5,-28 503.5,-64 572.5,-64 572.5,-28 503.5,-28"/>
<text text-anchor="middle" x="538" y="-42.3" font-family="Times,serif" font-size="14.00">PolyStyle</text>
</g>
<!-- PolyStyle&#45;&gt;AbstractColorStyle -->
<g id="edge35" class="edge"><title>PolyStyle&#45;&gt;AbstractColorStyle</title>
<path fill="none" stroke="black" d="M503.172,-58.1846C492.905,-62.3735 481.764,-67.4277 472,-73 454.63,-82.9133 453.154,-89.7162 436,-100 433.001,-101.798 429.867,-103.564 426.673,-105.281"/>
<polygon fill="black" stroke="black" points="424.859,-102.278 417.574,-109.972 428.066,-108.5 424.859,-102.278"/>
</g>
<!-- IconStyle -->
<g id="node12" class="node"><title>IconStyle</title>
<polygon fill="lightgrey" stroke="black" points="504,-193 504,-229 572,-229 572,-193 504,-193"/>
<text text-anchor="middle" x="538" y="-207.3" font-family="Times,serif" font-size="14.00">IconStyle</text>
</g>
<!-- IconStyle&#45;&gt;AbstractColorStyle -->
<g id="edge31" class="edge"><title>IconStyle&#45;&gt;AbstractColorStyle</title>
<path fill="none" stroke="black" d="M503.8,-198.614C493.347,-194.214 481.943,-188.878 472,-183 454.551,-172.685 453.365,-165.455 436,-155 433.569,-153.536 431.044,-152.102 428.468,-150.706"/>
<polygon fill="black" stroke="black" points="430.058,-147.588 419.566,-146.117 426.85,-153.81 430.058,-147.588"/>
</g>
<!-- AbstractObject -->
<g id="node13" class="node"><title>AbstractObject</title>
<polygon fill="none" stroke="black" points="0,-297 0,-343 98,-343 98,-297 0,-297"/>
<text text-anchor="middle" x="49" y="-327.8" font-family="Times,serif" font-size="14.00">AbstractObject</text>
<polyline fill="none" stroke="black" points="0,-320 98,-320 "/>
<text text-anchor="middle" x="49" y="-304.8" font-family="Times,serif" font-size="14.00">Id : string</text>
</g>
<!-- AbstractFeature&#45;&gt;AbstractObject -->
<g id="edge1" class="edge"><title>AbstractFeature&#45;&gt;AbstractObject</title>
<path fill="none" stroke="black" d="M154.385,-517.877C147.328,-506.987 140.332,-495.794 134,-485 107.724,-440.208 81.159,-386.24 65.1344,-352.514"/>
<polygon fill="black" stroke="black" points="68.1447,-350.693 60.7074,-343.147 61.8159,-353.684 68.1447,-350.693"/>
</g>
<!-- AbstractView -->
<g id="node15" class="node"><title>AbstractView</title>
<polygon fill="none" stroke="black" points="160,-693 160,-729 252,-729 252,-693 160,-693"/>
<text text-anchor="middle" x="206" y="-707.3" font-family="Times,serif" font-size="14.00">AbstractView</text>
</g>
<!-- AbstractView&#45;&gt;AbstractObject -->
<g id="edge2" class="edge"><title>AbstractView&#45;&gt;AbstractObject</title>
<path fill="none" stroke="black" d="M159.911,-700.726C150.211,-696.632 140.833,-690.93 134,-683 91.0108,-633.114 63.2679,-432.957 53.713,-353.12"/>
<polygon fill="black" stroke="black" points="57.1809,-352.641 52.5363,-343.119 50.2288,-353.459 57.1809,-352.641"/>
</g>
<!-- AbstractGeometry&#45;&gt;AbstractObject -->
<g id="edge3" class="edge"><title>AbstractGeometry&#45;&gt;AbstractObject</title>
<path fill="none" stroke="black" d="M191.322,-837.826C175.184,-815.496 148.697,-775.894 134,-738 81.0448,-601.465 59.77,-426.311 52.8368,-353.776"/>
<polygon fill="black" stroke="black" points="56.2866,-353.071 51.8801,-343.436 49.3164,-353.716 56.2866,-353.071"/>
</g>
<!-- AbstractStyleSelector&#45;&gt;AbstractObject -->
<g id="edge4" class="edge"><title>AbstractStyleSelector&#45;&gt;AbstractObject</title>
<path fill="none" stroke="black" d="M150.236,-439.992C144.506,-437.074 138.969,-433.755 134,-430 106.122,-408.933 82.8108,-376.305 67.8739,-352.048"/>
<polygon fill="black" stroke="black" points="70.7132,-349.978 62.5671,-343.203 64.7107,-353.579 70.7132,-349.978"/>
</g>
<!-- AbstractTimePrimitive -->
<g id="node18" class="node"><title>AbstractTimePrimitive</title>
<polygon fill="none" stroke="black" points="134.5,-385 134.5,-421 277.5,-421 277.5,-385 134.5,-385"/>
<text text-anchor="middle" x="206" y="-399.3" font-family="Times,serif" font-size="14.00">AbstractTimePrimitive</text>
</g>
<!-- AbstractTimePrimitive&#45;&gt;AbstractObject -->
<g id="edge5" class="edge"><title>AbstractTimePrimitive&#45;&gt;AbstractObject</title>
<path fill="none" stroke="black" d="M155.151,-384.84C147.948,-381.786 140.707,-378.472 134,-375 119.27,-367.375 103.884,-357.819 90.3659,-348.822"/>
<polygon fill="black" stroke="black" points="92.0224,-345.717 81.7777,-343.016 88.1019,-351.516 92.0224,-345.717"/>
</g>
<!-- AbstractContainer&#45;&gt;AbstractFeature -->
<g id="edge6" class="edge"><title>AbstractContainer&#45;&gt;AbstractFeature</title>
<path fill="none" stroke="black" d="M332.719,-645.955C312.858,-637.273 288.672,-626.701 266.839,-617.157"/>
<polygon fill="black" stroke="black" points="268.21,-613.937 257.646,-613.138 265.407,-620.351 268.21,-613.937"/>
</g>
<!-- AbstractOverlay&#45;&gt;AbstractFeature -->
<g id="edge7" class="edge"><title>AbstractOverlay&#45;&gt;AbstractFeature</title>
<path fill="none" stroke="black" d="M321.618,-558.742C304.427,-563.58 285.183,-568.997 267.444,-573.989"/>
<polygon fill="black" stroke="black" points="266.445,-570.634 257.767,-576.712 268.341,-577.372 266.445,-570.634"/>
</g>
<!-- NetworkLink -->
<g id="node21" class="node"><title>NetworkLink</title>
<polygon fill="none" stroke="black" points="330.5,-701 330.5,-737 419.5,-737 419.5,-701 330.5,-701"/>
<text text-anchor="middle" x="375" y="-715.3" font-family="Times,serif" font-size="14.00">NetworkLink</text>
</g>
<!-- NetworkLink&#45;&gt;AbstractFeature -->
<g id="edge11" class="edge"><title>NetworkLink&#45;&gt;AbstractFeature</title>
<path fill="none" stroke="black" d="M330.807,-700.867C324.996,-697.85 319.239,-694.539 314,-691 296.98,-679.503 280.047,-665.304 264.841,-651.254"/>
<polygon fill="black" stroke="black" points="267.208,-648.675 257.522,-644.381 262.416,-653.777 267.208,-648.675"/>
</g>
<!-- Kml -->
<g id="node22" class="node"><title>Kml</title>
<polygon fill="none" stroke="black" points="511,-769 511,-805 565,-805 565,-769 511,-769"/>
<text text-anchor="middle" x="538" y="-783.3" font-family="Times,serif" font-size="14.00">Kml</text>
</g>
<!-- NetworkLinkControl -->
<g id="node23" class="node"><title>NetworkLinkControl</title>
<polygon fill="none" stroke="black" points="472.5,-824 472.5,-860 603.5,-860 603.5,-824 472.5,-824"/>
<text text-anchor="middle" x="538" y="-838.3" font-family="Times,serif" font-size="14.00">NetworkLinkControl</text>
</g>
<!-- Schema -->
<g id="node24" class="node"><title>Schema</title>
<polygon fill="none" stroke="black" points="508,-879 508,-915 568,-915 568,-879 508,-879"/>
<text text-anchor="middle" x="538" y="-893.3" font-family="Times,serif" font-size="14.00">Schema</text>
</g>
<!-- SimpleField -->
<g id="node25" class="node"><title>SimpleField</title>
<polygon fill="none" stroke="black" points="496.5,-934 496.5,-970 579.5,-970 579.5,-934 496.5,-934"/>
<text text-anchor="middle" x="538" y="-948.3" font-family="Times,serif" font-size="14.00">SimpleField</text>
</g>
<!-- Region -->
<g id="node26" class="node"><title>Region</title>
<polygon fill="none" stroke="black" points="178,-330 178,-366 234,-366 234,-330 178,-330"/>
<text text-anchor="middle" x="206" y="-344.3" font-family="Times,serif" font-size="14.00">Region</text>
</g>
<!-- Region&#45;&gt;AbstractObject -->
<g id="edge12" class="edge"><title>Region&#45;&gt;AbstractObject</title>
<path fill="none" stroke="black" d="M177.646,-343.059C158.406,-339.583 131.941,-334.802 108.096,-330.495"/>
<polygon fill="black" stroke="black" points="108.528,-327.016 98.065,-328.683 107.284,-333.905 108.528,-327.016"/>
</g>
<!-- LatLonAltBox -->
<g id="node27" class="node"><title>LatLonAltBox</title>
<polygon fill="none" stroke="black" points="327,-220 327,-256 423,-256 423,-220 327,-220"/>
<text text-anchor="middle" x="375" y="-234.3" font-family="Times,serif" font-size="14.00">LatLonAltBox</text>
</g>
<!-- AbstractLatLonBox -->
<g id="node28" class="node"><title>AbstractLatLonBox</title>
<polygon fill="none" stroke="black" points="143.5,-275 143.5,-311 268.5,-311 268.5,-275 143.5,-275"/>
<text text-anchor="middle" x="206" y="-289.3" font-family="Times,serif" font-size="14.00">AbstractLatLonBox</text>
</g>
<!-- LatLonAltBox&#45;&gt;AbstractLatLonBox -->
<g id="edge13" class="edge"><title>LatLonAltBox&#45;&gt;AbstractLatLonBox</title>
<path fill="none" stroke="black" d="M326.591,-253.614C309.508,-259.24 289.928,-265.688 271.625,-271.716"/>
<polygon fill="black" stroke="black" points="270.306,-268.466 261.903,-274.918 272.496,-275.114 270.306,-268.466"/>
</g>
<!-- AbstractLatLonBox&#45;&gt;AbstractObject -->
<g id="edge22" class="edge"><title>AbstractLatLonBox&#45;&gt;AbstractObject</title>
<path fill="none" stroke="black" d="M143.295,-303.749C131.672,-305.773 119.554,-307.884 108.048,-309.888"/>
<polygon fill="black" stroke="black" points="107.373,-306.453 98.1221,-311.617 108.574,-313.349 107.373,-306.453"/>
</g>
<!-- Lod -->
<g id="node29" class="node"><title>Lod</title>
<polygon fill="none" stroke="black" points="179,-220 179,-256 233,-256 233,-220 179,-220"/>
<text text-anchor="middle" x="206" y="-234.3" font-family="Times,serif" font-size="14.00">Lod</text>
</g>
<!-- Lod&#45;&gt;AbstractObject -->
<g id="edge14" class="edge"><title>Lod&#45;&gt;AbstractObject</title>
<path fill="none" stroke="black" d="M178.787,-246.441C165.13,-251.217 148.333,-257.691 134,-265 119.223,-272.535 103.826,-282.067 90.3109,-291.071"/>
<polygon fill="black" stroke="black" points="88.0437,-288.38 81.7269,-296.886 91.9693,-294.175 88.0437,-288.38"/>
</g>
<!-- Link -->
<g id="node30" class="node"><title>Link</title>
<polygon fill="none" stroke="black" points="348,-165 348,-201 402,-201 402,-165 348,-165"/>
<text text-anchor="middle" x="375" y="-179.3" font-family="Times,serif" font-size="14.00">Link</text>
</g>
<!-- BasicLink -->
<g id="node31" class="node"><title>BasicLink</title>
<polygon fill="none" stroke="black" points="170,-165 170,-201 242,-201 242,-165 170,-165"/>
<text text-anchor="middle" x="206" y="-179.3" font-family="Times,serif" font-size="14.00">BasicLink</text>
</g>
<!-- Link&#45;&gt;BasicLink -->
<g id="edge15" class="edge"><title>Link&#45;&gt;BasicLink</title>
<path fill="none" stroke="black" d="M347.906,-183C322.356,-183 282.908,-183 252.242,-183"/>
<polygon fill="black" stroke="black" points="252.212,-179.5 242.212,-183 252.212,-186.5 252.212,-179.5"/>
</g>
<!-- BasicLink&#45;&gt;AbstractObject -->
<g id="edge32" class="edge"><title>BasicLink&#45;&gt;AbstractObject</title>
<path fill="none" stroke="black" d="M169.812,-192.074C157.716,-196.269 144.57,-202.114 134,-210 105.993,-230.896 82.6998,-263.547 67.802,-287.856"/>
<polygon fill="black" stroke="black" points="64.6301,-286.341 62.511,-296.722 70.6411,-289.928 64.6301,-286.341"/>
</g>
<!-- MultiGeometry -->
<g id="node32" class="node"><title>MultiGeometry</title>
<polygon fill="none" stroke="black" points="324,-921 324,-957 426,-957 426,-921 324,-921"/>
<text text-anchor="middle" x="375" y="-935.3" font-family="Times,serif" font-size="14.00">MultiGeometry</text>
</g>
<!-- MultiGeometry&#45;&gt;AbstractGeometry -->
<g id="edge16" class="edge"><title>MultiGeometry&#45;&gt;AbstractGeometry</title>
<path fill="none" stroke="black" d="M334.844,-920.99C327.88,-917.712 320.709,-914.288 314,-911 292.952,-900.684 269.794,-888.843 250.422,-878.796"/>
<polygon fill="black" stroke="black" points="252.014,-875.679 241.527,-874.171 248.785,-881.889 252.014,-875.679"/>
</g>
<!-- Boundary -->
<g id="node33" class="node"><title>Boundary</title>
<polygon fill="none" stroke="black" points="503,-989 503,-1025 573,-1025 573,-989 503,-989"/>
<text text-anchor="middle" x="538" y="-1003.3" font-family="Times,serif" font-size="14.00">Boundary</text>
</g>
<!-- LatLonBox -->
<g id="node34" class="node"><title>LatLonBox</title>
<polygon fill="none" stroke="black" points="335.5,-275 335.5,-311 414.5,-311 414.5,-275 335.5,-275"/>
<text text-anchor="middle" x="375" y="-289.3" font-family="Times,serif" font-size="14.00">LatLonBox</text>
</g>
<!-- LatLonBox&#45;&gt;AbstractLatLonBox -->
<g id="edge23" class="edge"><title>LatLonBox&#45;&gt;AbstractLatLonBox</title>
<path fill="none" stroke="black" d="M335.267,-293C318.446,-293 298.185,-293 278.784,-293"/>
<polygon fill="black" stroke="black" points="278.74,-289.5 268.74,-293 278.74,-296.5 278.74,-289.5"/>
</g>
<!-- ScreenOverlay -->
<g id="node35" class="node"><title>ScreenOverlay</title>
<polygon fill="none" stroke="black" points="489.5,-523 489.5,-559 586.5,-559 586.5,-523 489.5,-523"/>
<text text-anchor="middle" x="538" y="-537.3" font-family="Times,serif" font-size="14.00">ScreenOverlay</text>
</g>
<!-- ScreenOverlay&#45;&gt;AbstractOverlay -->
<g id="edge24" class="edge"><title>ScreenOverlay&#45;&gt;AbstractOverlay</title>
<path fill="none" stroke="black" d="M489.131,-541.892C473.241,-542.188 455.31,-542.522 438.485,-542.836"/>
<polygon fill="black" stroke="black" points="438.114,-539.342 428.181,-543.028 438.244,-546.341 438.114,-539.342"/>
</g>
<!-- PhotoOverlay -->
<g id="node36" class="node"><title>PhotoOverlay</title>
<polygon fill="none" stroke="black" points="492,-468 492,-504 584,-504 584,-468 492,-468"/>
<text text-anchor="middle" x="538" y="-482.3" font-family="Times,serif" font-size="14.00">PhotoOverlay</text>
</g>
<!-- PhotoOverlay&#45;&gt;AbstractOverlay -->
<g id="edge25" class="edge"><title>PhotoOverlay&#45;&gt;AbstractOverlay</title>
<path fill="none" stroke="black" d="M491.724,-502.311C474.3,-508.588 454.133,-515.853 435.563,-522.542"/>
<polygon fill="black" stroke="black" points="434.243,-519.298 426.021,-525.98 436.615,-525.884 434.243,-519.298"/>
</g>
<!-- ViewVolume -->
<g id="node37" class="node"><title>ViewVolume</title>
<polygon fill="none" stroke="black" points="161,-110 161,-146 251,-146 251,-110 161,-110"/>
<text text-anchor="middle" x="206" y="-124.3" font-family="Times,serif" font-size="14.00">ViewVolume</text>
</g>
<!-- ViewVolume&#45;&gt;AbstractObject -->
<g id="edge26" class="edge"><title>ViewVolume&#45;&gt;AbstractObject</title>
<path fill="none" stroke="black" d="M160.858,-139.04C151.235,-142.937 141.654,-148.128 134,-155 93.9919,-190.923 70.4038,-250.347 58.859,-287.223"/>
<polygon fill="black" stroke="black" points="55.4506,-286.404 55.9185,-296.988 62.1533,-288.422 55.4506,-286.404"/>
</g>
<!-- StyleMap -->
<g id="node38" class="node"><title>StyleMap</title>
<polygon fill="none" stroke="black" points="340,-471 340,-507 410,-507 410,-471 340,-471"/>
<text text-anchor="middle" x="375" y="-485.3" font-family="Times,serif" font-size="14.00">StyleMap</text>
</g>
<!-- StyleMap&#45;&gt;AbstractStyleSelector -->
<g id="edge28" class="edge"><title>StyleMap&#45;&gt;AbstractStyleSelector</title>
<path fill="none" stroke="black" d="M339.802,-482.652C323.394,-479.606 303.028,-475.826 283.214,-472.147"/>
<polygon fill="black" stroke="black" points="283.711,-468.68 273.24,-470.296 282.433,-475.562 283.711,-468.68"/>
</g>
<!-- AbstractSubStyle -->
<g id="node39" class="node"><title>AbstractSubStyle</title>
<polygon fill="none" stroke="black" points="150.5,-55 150.5,-91 261.5,-91 261.5,-55 150.5,-55"/>
<text text-anchor="middle" x="206" y="-69.3" font-family="Times,serif" font-size="14.00">AbstractSubStyle</text>
</g>
<!-- AbstractSubStyle&#45;&gt;AbstractObject -->
<g id="edge29" class="edge"><title>AbstractSubStyle&#45;&gt;AbstractObject</title>
<path fill="none" stroke="black" d="M150.486,-88.0694C144.44,-91.3169 138.759,-95.2474 134,-100 82.0934,-151.837 61.6836,-239.086 54.1181,-286.641"/>
<polygon fill="black" stroke="black" points="50.6288,-286.31 52.6138,-296.717 57.552,-287.343 50.6288,-286.31"/>
</g>
<!-- AbstractColorStyle&#45;&gt;AbstractSubStyle -->
<g id="edge30" class="edge"><title>AbstractColorStyle&#45;&gt;AbstractSubStyle</title>
<path fill="none" stroke="black" d="M319.318,-109.991C303.957,-104.932 287.112,-99.3843 271.248,-94.1596"/>
<polygon fill="black" stroke="black" points="272.113,-90.7594 261.52,-90.9555 269.923,-97.4081 272.113,-90.7594"/>
</g>
<!-- LabelStyle -->
<g id="node41" class="node"><title>LabelStyle</title>
<polygon fill="none" stroke="black" points="500.5,-138 500.5,-174 575.5,-174 575.5,-138 500.5,-138"/>
<text text-anchor="middle" x="538" y="-152.3" font-family="Times,serif" font-size="14.00">LabelStyle</text>
</g>
<!-- LabelStyle&#45;&gt;AbstractColorStyle -->
<g id="edge33" class="edge"><title>LabelStyle&#45;&gt;AbstractColorStyle</title>
<path fill="none" stroke="black" d="M500.467,-149.646C484.266,-146.829 464.639,-143.415 445.806,-140.14"/>
<polygon fill="black" stroke="black" points="446.206,-136.657 435.754,-138.392 445.006,-143.554 446.206,-136.657"/>
</g>
<!-- BalloonStyle -->
<g id="node42" class="node"><title>BalloonStyle</title>
<polygon fill="none" stroke="black" points="331.5,-55 331.5,-91 418.5,-91 418.5,-55 331.5,-55"/>
<text text-anchor="middle" x="375" y="-69.3" font-family="Times,serif" font-size="14.00">BalloonStyle</text>
</g>
<!-- BalloonStyle&#45;&gt;AbstractSubStyle -->
<g id="edge36" class="edge"><title>BalloonStyle&#45;&gt;AbstractSubStyle</title>
<path fill="none" stroke="black" d="M331.427,-73C313.239,-73 291.611,-73 271.528,-73"/>
<polygon fill="black" stroke="black" points="271.505,-69.5001 261.505,-73 271.505,-76.5001 271.505,-69.5001"/>
</g>
<!-- ListStyle -->
<g id="node43" class="node"><title>ListStyle</title>
<polygon fill="none" stroke="black" points="342.5,-0 342.5,-36 407.5,-36 407.5,-0 342.5,-0"/>
<text text-anchor="middle" x="375" y="-14.3" font-family="Times,serif" font-size="14.00">ListStyle</text>
</g>
<!-- ListStyle&#45;&gt;AbstractSubStyle -->
<g id="edge37" class="edge"><title>ListStyle&#45;&gt;AbstractSubStyle</title>
<path fill="none" stroke="black" d="M342.195,-28.4745C322.145,-35.0781 295.537,-43.8412 271.233,-51.8455"/>
<polygon fill="black" stroke="black" points="270.1,-48.5336 261.696,-54.9862 272.29,-55.1823 270.1,-48.5336"/>
</g>
<!-- ItemIcon -->
<g id="node44" class="node"><title>ItemIcon</title>
<polygon fill="none" stroke="black" points="173,-0 173,-36 239,-36 239,-0 173,-0"/>
<text text-anchor="middle" x="206" y="-14.3" font-family="Times,serif" font-size="14.00">ItemIcon</text>
</g>
<!-- ItemIcon&#45;&gt;AbstractObject -->
<g id="edge38" class="edge"><title>ItemIcon&#45;&gt;AbstractObject</title>
<path fill="none" stroke="black" d="M172.816,-23.6739C159.205,-27.5799 144.179,-34.116 134,-45 69.9326,-113.506 54.6604,-229.589 51.0689,-286.508"/>
<polygon fill="black" stroke="black" points="47.5603,-286.572 50.5101,-296.748 54.5499,-286.953 47.5603,-286.572"/>
</g>
</g>
</svg>
